<?xml version="1.0" encoding="UTF-8"?>
<svg version="1.1" xmlns="http://www.w3.org/2000/svg" width="500" height="500">
<path d="M0 0 C165 0 330 0 500 0 C500 165 500 330 500 500 C335 500 170 500 0 500 C0 335 0 170 0 0 Z " fill="#000000" transform="translate(0,0)"/>
<path d="M0 0 C3.73019703 1.8432284 7.2622652 3.95870093 10.8125 6.125 C12.96694207 7.41100407 15.12190794 8.69613094 17.27734375 9.98046875 C18.38706543 10.6461084 19.49678711 11.31174805 20.64013672 11.99755859 C26.01808459 15.20275612 31.44650634 18.31894242 36.875 21.4375 C39.06002503 22.69639036 41.2449202 23.95550615 43.4296875 25.21484375 C44.51475586 25.83987793 45.59982422 26.46491211 46.71777344 27.10888672 C52.14659942 30.23680148 57.57319281 33.36858448 63 36.5 C65.16665583 37.75001879 67.3333225 39.00001878 69.5 40.25 C111.75 64.625 111.75 64.625 154 89 C154.21020261 112.7564117 154.36893025 136.51268413 154.46630955 160.26983833 C154.51272562 171.30065107 154.5760106 182.33088616 154.67895508 193.36132812 C154.76863477 202.97503538 154.82671778 212.58832433 154.84679645 222.20243824 C154.85853465 227.2937408 154.8861346 232.38384666 154.95157051 237.47476578 C155.01266715 242.26691935 155.03150392 247.05738371 155.01796913 251.84988976 C155.02044497 253.6083755 155.03834782 255.36691776 155.07284927 257.12506676 C155.32107301 270.42682683 155.32107301 270.42682683 152.03300953 274.34235096 C149.73022039 275.90619024 147.58305383 276.98354716 145 278 C144.01136963 278.60062256 143.02273926 279.20124512 142.00415039 279.82006836 C141.12750732 280.32159424 140.25086426 280.82312012 139.34765625 281.33984375 C138.33767578 281.91992188 137.32769531 282.5 136.28710938 283.09765625 C135.22298828 283.70480469 134.15886719 284.31195313 133.0625 284.9375 C131.3326544 285.92992138 129.60281157 286.92234765 127.87313843 287.91506958 C126.09060128 288.93764091 124.30731803 289.95890134 122.52392578 290.97998047 C117.00810193 294.13969922 111.50482075 297.32116574 106 300.5 C103.83077518 301.75138185 101.66150424 303.00268376 99.4921875 304.25390625 C95.18398349 306.73930902 90.87677211 309.22641977 86.5703125 311.71484375 C74.81133009 318.50765398 63.03736661 325.27332356 51.24212646 332.00292969 C43.68196958 336.31655641 36.13224275 340.64744249 28.59667969 345.00390625 C25.34823873 346.88074112 22.09611057 348.75106215 18.84375 350.62109375 C15.2200736 352.70729266 11.61594072 354.82022841 8.03125 356.97265625 C6.92861816 357.6234314 6.92861816 357.6234314 5.80371094 358.28735352 C4.49161025 359.06210436 3.18668353 359.84922365 1.89160156 360.65209961 C-2.2290736 363.05816675 -4.43233568 363.10991968 -9 362 C-11.65527344 360.74755859 -11.65527344 360.74755859 -14.359375 359.1484375 C-15.88884766 358.25415039 -15.88884766 358.25415039 -17.44921875 357.34179688 C-18.53847656 356.69275391 -19.62773437 356.04371094 -20.75 355.375 C-21.90697352 354.69497822 -23.06453713 354.01595953 -24.22265625 353.33789062 C-26.62665148 351.92932676 -29.02805773 350.51649359 -31.42773438 349.10058594 C-36.9283488 345.85983022 -42.46603409 342.68333677 -48 339.5 C-50.16684034 338.25030108 -52.3335065 337.00030011 -54.5 335.75 C-55.5725 335.13125 -56.645 334.5125 -57.75 333.875 C-69.66666667 327 -81.58333333 320.125 -93.5 313.25 C-94.57266113 312.63116943 -95.64532227 312.01233887 -96.75048828 311.37475586 C-98.91557071 310.12564482 -101.08060982 308.87645871 -103.24560547 307.62719727 C-108.68615706 304.48797691 -114.12747216 301.35009437 -119.5703125 298.21484375 C-120.66859375 297.58191406 -121.766875 296.94898438 -122.8984375 296.296875 C-124.9215791 295.13099679 -126.94497682 293.96556279 -128.96875 292.80078125 C-130.9548517 291.65597732 -132.91740662 290.46956234 -134.85722351 289.24797058 C-138.07644434 287.35071064 -141.30518129 286.17856539 -144.84162903 284.98579407 C-152.01311933 282.22727263 -158.18255495 279.1448492 -163 273 C-167.92072599 261.57980667 -166.2517166 246.87683862 -165.99329114 234.75484753 C-165.90588699 229.66662535 -165.94234396 224.57902909 -165.9606781 219.49029541 C-165.97228324 210.95136492 -165.88800712 202.41752935 -165.74438477 193.87988281 C-165.57966916 184.02657401 -165.5606561 174.18122042 -165.62079769 164.32689834 C-165.67601955 154.81859351 -165.63467919 145.31311395 -165.54743767 135.80512238 C-165.51170499 131.77128342 -165.50824059 127.73935678 -165.53097725 123.70543671 C-165.55293068 118.95120705 -165.48962119 114.20532423 -165.36187172 109.45283508 C-165.32837763 107.71577972 -165.32326047 105.97789526 -165.34949112 104.24071503 C-165.48861537 93.56416704 -165.48861537 93.56416704 -163 89 C-158.78361032 84.80775092 -153.44989939 82.34221255 -148.07576263 79.95174646 C-145.10599679 78.59009553 -142.3663374 76.95108188 -139.56640625 75.26953125 C-137.56553379 74.11644169 -135.56422606 72.96410711 -133.5625 71.8125 C-131.31379049 70.5169472 -129.06509292 69.22137368 -126.81640625 67.92578125 C-125.68734863 67.27561035 -124.55829102 66.62543945 -123.39501953 65.95556641 C-117.9283002 62.80667946 -112.46425113 59.65316736 -107 56.5 C-104.83334689 55.2499765 -102.66668021 53.99997653 -100.5 52.75 C-99.4275 52.13125 -98.355 51.5125 -97.25 50.875 C-85.33333333 44 -73.41666667 37.125 -61.5 30.25 C-59.88919556 29.3206665 -59.88919556 29.3206665 -58.24584961 28.37255859 C-56.09307184 27.13060256 -53.94024037 25.8887396 -51.78735352 24.64697266 C-46.75383085 21.74353087 -41.72081952 18.839215 -36.68978882 15.93145752 C-34.91637392 14.90654597 -33.14278354 13.88193877 -31.36914062 12.85742188 C-29.15004227 11.57547262 -26.93126984 10.29295893 -24.71289062 9.00976562 C-22.72339997 7.86076177 -20.73056268 6.71752643 -18.73388672 5.58105469 C-16.9716454 4.56191959 -15.22648011 3.51236919 -13.50439453 2.42675781 C-8.59628099 -0.58421494 -5.75258559 -1.9030175 0 0 Z " fill="#F0F0F0" transform="translate(255,34)"/>
<path d="M0 0 C2.28679123 0.94933045 4.39369571 2.03919967 6.54589844 3.26611328 C7.44655029 3.77698486 8.34720215 4.28785645 9.27514648 4.81420898 C10.73174683 5.65085083 10.73174683 5.65085083 12.21777344 6.50439453 C13.23846924 7.08600342 14.25916504 7.6676123 15.31079102 8.2668457 C23.44991516 12.91626201 31.54673428 17.63776436 39.63525391 22.37451172 C47.34300381 26.88400974 55.08516655 31.33141833 62.84277344 35.75439453 C72.37642923 41.19065187 81.89923711 46.64496064 91.40527344 52.12939453 C92.49501465 52.75773193 93.58475586 53.38606934 94.70751953 54.03344727 C100.44857178 57.34791156 100.44857178 57.34791156 102.96777344 58.81689453 C103.89984619 59.33276123 104.83191895 59.84862793 105.79223633 60.38012695 C106.51016357 60.85426025 107.22809082 61.32839355 107.96777344 61.81689453 C107.96777344 62.47689453 107.96777344 63.13689453 107.96777344 63.81689453 C104.14534913 66.00470673 100.3224957 68.19176674 96.49926758 70.37817383 C95.20260404 71.11983643 93.90605168 71.86169345 92.60961914 72.60375977 C91.98337646 72.96219971 91.35713379 73.32063965 90.71191406 73.68994141 C90.09150238 74.04524933 89.4710907 74.40055725 88.83187866 74.76663208 C87.59522179 75.47263524 86.35696345 76.17584081 85.11709595 76.87619019 C82.46342782 78.37613248 79.8397299 79.89755388 77.26025391 81.52246094 C71.79123103 84.90345746 71.79123103 84.90345746 68.06933594 84.51220703 C63.44249277 81.98317689 58.86985189 79.39636853 54.34277344 76.69189453 C52.2002714 75.42633982 50.05700964 74.16207061 47.91308594 72.89892578 C46.78676758 72.2345752 45.66044922 71.57022461 44.5 70.88574219 C38.43949119 67.32547328 32.32614081 63.85665565 26.21777344 60.37939453 C23.95192319 59.08942552 21.68629046 57.79907434 19.42089844 56.50830078 C18.35033203 55.90260254 17.27976562 55.2969043 16.17675781 54.67285156 C13.97991304 53.40227837 11.80467412 52.09380821 9.64941406 50.75390625 C8.59431641 50.10309082 7.53921875 49.45227539 6.45214844 48.78173828 C5.5159668 48.18868896 4.57978516 47.59563965 3.61523438 46.98461914 C0.42445284 45.57725027 -0.76965296 45.6899515 -4.03222656 46.81689453 C-5.85175297 47.68708047 -7.63708543 48.63071541 -9.39160156 49.62548828 C-10.41584229 50.20234375 -11.44008301 50.77919922 -12.49536133 51.37353516 C-13.58002686 51.99421875 -14.66469238 52.61490234 -15.78222656 53.25439453 C-16.90749756 53.89183594 -18.03276855 54.52927734 -19.19213867 55.18603516 C-25.35228495 58.68522729 -31.49034215 62.22131817 -37.59472656 65.81689453 C-38.55971069 66.3839209 -38.55971069 66.3839209 -39.54418945 66.96240234 C-43.78484276 69.46386794 -47.9939147 72.01333669 -52.19628906 74.57861328 C-54.37061327 75.8874645 -56.54509191 77.19605919 -58.71972656 78.50439453 C-59.748479 79.14183594 -60.77723145 79.77927734 -61.8371582 80.43603516 C-62.81289795 81.01933594 -63.7886377 81.60263672 -64.79394531 82.20361328 C-65.65979248 82.73172607 -66.52563965 83.25983887 -67.41772461 83.80395508 C-70.81330595 85.119509 -72.5446499 84.81374036 -76.03222656 83.81689453 C-79.17260742 82.2980957 -79.17260742 82.2980957 -82.49707031 80.35986328 C-83.3916671 79.84351067 -83.3916671 79.84351067 -84.30433655 79.31672668 C-86.19792715 78.22117879 -88.08383464 77.11313186 -89.96972656 76.00439453 C-91.2316027 75.27112247 -92.49396872 74.53869276 -93.75683594 73.80712891 C-96.09517119 72.4512181 -98.42982046 71.08964071 -100.76245117 69.72387695 C-104.17426434 67.73405596 -107.60042777 65.77199142 -111.03222656 63.81689453 C-108.52387536 60.99905416 -105.73299719 59.3596573 -102.45800781 57.51611328 C-101.32814453 56.87609375 -100.19828125 56.23607422 -99.03417969 55.57666016 C-98.43355713 55.23932861 -97.83293457 54.90199707 -97.21411133 54.55444336 C-94.01905595 52.75975442 -90.8330252 50.94914478 -87.64550781 49.14111328 C-86.99856964 48.77476776 -86.35163147 48.40842224 -85.68508911 48.03097534 C-79.77019333 44.67830449 -73.89683955 41.25671082 -68.03222656 37.81689453 C-58.27632855 32.10441467 -48.47794231 26.46846244 -38.64746094 20.88549805 C-32.60699242 17.45176246 -26.59416248 13.97898255 -20.61816406 10.43408203 C-18.83081963 9.3800252 -17.04291829 8.32691981 -15.25482178 7.2741394 C-13.56616941 6.27448808 -11.88528192 5.26175695 -10.20458984 4.2487793 C-9.18864746 3.65121826 -8.17270508 3.05365723 -7.12597656 2.43798828 C-6.23587891 1.90616943 -5.34578125 1.37435059 -4.42871094 0.82641602 C-2.03222656 -0.18310547 -2.03222656 -0.18310547 0 0 Z " fill="#010101" transform="translate(251.0322265625,86.18310546875)"/>
<path d="M0 0 C0 57.42 0 114.84 0 174 C-4.09310809 172.36275677 -7.59734153 170.62252255 -11.40234375 168.4453125 C-12.00252823 168.10249237 -12.60271271 167.75967224 -13.22108459 167.40646362 C-14.48511088 166.68349698 -15.74823428 165.95894969 -17.01049805 165.23291016 C-18.92591639 164.13165988 -20.84453389 163.03615872 -22.76367188 161.94140625 C-29.63701031 158.00490403 -29.63701031 158.00490403 -33 156 C-34.03843048 155.5545282 -35.07686096 155.1090564 -36.14675903 154.65008545 C-39.43929635 151.59198228 -39.46867429 150.92444369 -39.78208923 146.62405396 C-39.82701026 144.31893786 -39.83835226 142.01302845 -39.82397461 139.70751953 C-39.8393074 138.44860901 -39.8546402 137.18969849 -39.87043762 135.89263916 C-39.91059786 132.44190411 -39.91234568 128.99215482 -39.90474772 125.54123163 C-39.90153707 122.65853512 -39.91619251 119.7760377 -39.93056399 116.89338386 C-39.96384712 110.09071757 -39.96516461 103.28854817 -39.94702148 96.48583984 C-39.92890592 89.47331929 -39.9658188 82.46260513 -40.02973169 75.45039284 C-40.08262131 69.42552294 -40.10057764 63.40122725 -40.09081846 57.3761338 C-40.08538433 53.77945274 -40.09323426 50.18405966 -40.13496208 46.58758926 C-40.17978347 42.57429546 -40.15176127 38.56466235 -40.11694336 34.55126953 C-40.13987457 33.36352936 -40.16280579 32.17578918 -40.18643188 30.95205688 C-40.03522581 23.07443379 -40.03522581 23.07443379 -37.03674316 19.96238708 C-34.74866996 18.41372692 -32.4961054 17.17679548 -30 16 C-28.92121582 15.3615918 -27.84243164 14.72318359 -26.73095703 14.06542969 C-25.74981934 13.52305664 -24.76868164 12.98068359 -23.7578125 12.421875 C-22.67242187 11.81859375 -21.58703125 11.2153125 -20.46875 10.59375 C-19.3653125 9.9853125 -18.261875 9.376875 -17.125 8.75 C-14.89786143 7.51666468 -12.67127255 6.28233608 -10.4453125 5.046875 C-8.98375732 4.24008301 -8.98375732 4.24008301 -7.49267578 3.41699219 C-1.48173673 0 -1.48173673 0 0 0 Z " fill="#010101" transform="translate(405,128)"/>
<path d="M0 0 C3.93737659 1.57495064 7.25449047 3.19290123 10.89453125 5.30078125 C12.01537109 5.94853516 13.13621094 6.59628906 14.29101562 7.26367188 C14.87020752 7.60068115 15.44939941 7.93769043 16.04614258 8.28491211 C17.79496155 9.30229692 19.54660746 10.31465931 21.29882812 11.32617188 C24.54083749 13.20449363 27.77983959 15.08443119 31 17 C32.00588559 17.41632218 32.00588559 17.41632218 33.03209209 17.84105492 C35.46872802 18.99143706 37.13323131 20.04359126 39 22 C40.18966052 26.15038794 40.01125654 30.21021497 39.90820312 34.5012207 C39.90937134 35.76991501 39.91053955 37.03860931 39.91174316 38.3457489 C39.91403558 41.81732759 39.86706058 45.28668802 39.8111515 48.7577517 C39.76108582 52.38779923 39.75643751 56.01789963 39.74694824 59.64823914 C39.72209865 66.51926001 39.65647278 73.38926065 39.57615232 80.25983256 C39.48668277 88.08311348 39.44273493 95.90644356 39.40258884 103.73010886 C39.31900348 119.82066951 39.1783227 135.91020449 39 152 C38.27522461 152.41773682 37.55044922 152.83547363 36.80371094 153.26586914 C34.05259232 154.85172315 31.30163618 156.43785856 28.55078125 158.02416992 C26.79959985 159.03390074 25.04824002 160.04332207 23.296875 161.05273438 C21.5953125 162.0340332 21.5953125 162.0340332 19.859375 163.03515625 C18.1587793 164.01572998 18.1587793 164.01572998 16.42382812 165.01611328 C14.11069797 166.35642244 11.80170124 167.70177612 9.49804688 169.05810547 C8.41072266 169.6976416 7.32339844 170.33717773 6.203125 170.99609375 C4.73601074 171.8631897 4.73601074 171.8631897 3.23925781 172.74780273 C1 174 1 174 0 174 C0 116.58 0 59.16 0 0 Z " fill="#010101" transform="translate(95,128)"/>
<path d="M0 0 C0 14.85 0 29.7 0 45 C-3.3 46.85625 -6.6 48.7125 -10 50.625 C-19.3159083 55.88043605 -28.57602482 61.22493842 -37.80712891 66.62768555 C-45.14828523 70.92352078 -52.50575643 75.19003048 -59.875 79.4375 C-60.94484131 80.05415527 -62.01468262 80.67081055 -63.11694336 81.30615234 C-65.29661567 82.56217932 -67.47638523 83.81803754 -69.65625 85.07373047 C-74.26777425 87.73034016 -78.8785214 90.38829557 -83.48876953 93.04711914 C-85.66664882 94.30312898 -87.84469506 95.55884939 -90.02294922 96.81420898 C-91.02342285 97.39114502 -92.02389648 97.96808105 -93.0546875 98.5625 C-94.03018555 99.119375 -95.00568359 99.67625 -96.01074219 100.25 C-98.11338219 101.48094769 -100.19043014 102.75614691 -102.24707031 104.0625 C-103.8302002 105.0525 -103.8302002 105.0525 -105.4453125 106.0625 C-106.39164551 106.67222656 -107.33797852 107.28195313 -108.31298828 107.91015625 C-111 109 -111 109 -113.49462891 108.37402344 C-114.7347876 107.69388184 -114.7347876 107.69388184 -116 107 C-116.89750977 106.53239258 -117.79501953 106.06478516 -118.71972656 105.58300781 C-121.898658 103.80914069 -125.07665764 102.03385331 -128.25 100.25 C-129.34441406 99.6415625 -130.43882812 99.033125 -131.56640625 98.40625 C-137.89990784 94.8564551 -144.03867873 91.1465067 -150 87 C-147.22262654 84.01114732 -144.56071009 81.98949092 -140.984375 80.0390625 C-139.49780396 79.21946045 -139.49780396 79.21946045 -137.98120117 78.38330078 C-136.91490479 77.80306152 -135.8486084 77.22282227 -134.75 76.625 C-132.46905029 75.36639717 -130.18912627 74.10593395 -127.91015625 72.84375 C-127.33022415 72.52310577 -126.75029205 72.20246155 -126.15278625 71.87210083 C-120.44633285 68.70980463 -114.81231951 65.42965246 -109.1875 62.125 C-100.4918497 57.02353265 -91.75993349 51.98991313 -83 47 C-74.3058175 42.04650505 -65.63506926 37.05613629 -57 32 C-43.72534286 24.23004055 -30.37104317 16.60256679 -17 9 C-16.08428223 8.47873535 -15.16856445 7.9574707 -14.22509766 7.42041016 C-11.92246845 6.11080933 -9.61807775 4.80440101 -7.3125 3.5 C-6.66539062 3.13221436 -6.01828125 2.76442871 -5.3515625 2.38549805 C-1.11702097 0 -1.11702097 0 0 0 Z " fill="#010101" transform="translate(248,38)"/>
<path d="M0 0 C2.80925614 1.39066227 5.55144306 2.79953691 8.25683594 4.38354492 C9.27648437 4.97651367 10.29613281 5.56948242 11.34667969 6.18041992 C12.4359375 6.82108398 13.52519531 7.46174805 14.64746094 8.12182617 C15.80467066 8.79689256 16.96222951 9.47136079 18.12011719 10.14526367 C20.52316676 11.54448422 22.92470013 12.94625553 25.32519531 14.34985352 C30.83532905 17.56881982 36.3675371 20.74952462 41.89746094 23.93432617 C44.06423072 25.18414741 46.23089709 26.43414798 48.39746094 27.68432617 C49.46996094 28.30307617 50.54246094 28.92182617 51.64746094 29.55932617 C56.52246094 32.37182617 56.52246094 32.37182617 61.39746094 35.18432617 C63.00899048 36.11402222 63.00899048 36.11402222 64.65307617 37.0625 C66.8011014 38.30178884 68.94905169 39.54120758 71.09692383 40.78076172 C76.18401643 43.71635185 81.2718794 46.65058289 86.36239624 49.58023071 C88.77289841 50.96760712 91.1829747 52.35572241 93.59301758 53.74389648 C95.29890061 54.72606432 97.0054008 55.70716002 98.71191406 56.68823242 C99.74123047 57.28120117 100.77054688 57.87416992 101.83105469 58.48510742 C102.73911865 59.00758057 103.64718262 59.53005371 104.58276367 60.06835938 C106.38872294 61.13410583 108.15267222 62.2711337 109.89746094 63.43432617 C110.25822449 65.38320923 110.25822449 65.38320923 110.23803711 67.79223633 C110.23781052 68.6930191 110.23758392 69.59380188 110.23735046 70.5218811 C110.22186661 71.4958786 110.20638275 72.4698761 110.19042969 73.47338867 C110.18618484 74.4693808 110.18194 75.46537292 110.17756653 76.49154663 C110.16073774 79.68107842 110.12307769 82.8699845 110.08496094 86.05932617 C110.06991954 88.21817123 110.05623019 90.37702617 110.04394531 92.53588867 C110.0108206 97.83558229 109.9605799 103.13490954 109.89746094 108.43432617 C99.3972359 103.25187861 99.3972359 103.25187861 94.65527344 100.44604492 C93.74922363 99.91309814 92.84317383 99.38015137 91.90966797 98.83105469 C90.95688965 98.26700928 90.00411133 97.70296387 89.02246094 97.12182617 C80.05668867 91.85259196 71.05795193 86.6453843 62.02246094 81.49682617 C59.6524768 80.14560096 57.28269788 78.79401649 54.91308594 77.44213867 C54.3278717 77.10827148 53.74265747 76.7744043 53.13970947 76.43041992 C41.62947633 69.85974456 30.1636731 63.211422 18.68847656 56.57983398 C6.08517379 49.29750007 -6.52850353 42.0338264 -19.16503906 34.80932617 C-19.75258972 34.4732132 -20.34014038 34.13710022 -20.94549561 33.790802 C-27.64066853 29.96163665 -34.34779632 26.15754996 -41.10253906 22.43432617 C-38.4724271 19.43251784 -35.38537641 17.73520054 -31.93066406 15.78198242 C-31.33002136 15.44057724 -30.72937866 15.09917206 -30.11053467 14.74742126 C-28.19376482 13.65929356 -26.27326276 12.57795642 -24.35253906 11.49682617 C-23.07624223 10.77396922 -21.80019789 10.05066628 -20.52441406 9.3269043 C-18.157794 7.98500692 -15.78949801 6.64625866 -13.41992188 5.30957031 C-11.69723454 4.33577274 -9.97710812 3.34927931 -8.3392334 2.23873901 C-5.24450144 0.21226983 -3.70643648 -0.67578009 0 0 Z " fill="#010101" transform="translate(138.1025390625,283.565673828125)"/>
<path d="M0 0 C3.54434427 1.34455698 6.80799193 2.91228344 10.11328125 4.765625 C11.10126709 5.31855225 12.08925293 5.87147949 13.10717773 6.44116211 C14.16493408 7.03807861 15.22269043 7.63499512 16.3125 8.25 C17.42117432 8.87334229 18.52984863 9.49668457 19.67211914 10.13891602 C29.13940877 15.47873305 38.53299965 20.94123025 47.91015625 26.4375 C57.48553229 32.04803561 67.10987716 37.57397912 76.7265625 43.11328125 C79.9647516 44.9796838 83.20139438 46.84873763 86.4375 48.71875 C98.38861497 55.62335501 110.35838897 62.4937118 122.34820557 69.33078003 C131.94722399 74.80640761 141.50006787 80.35432605 151 86 C147.66916965 88.7906957 144.38020037 91.02559027 140.54296875 93.05859375 C139.51236328 93.60966797 138.48175781 94.16074219 137.41992188 94.72851562 C136.35322266 95.29248047 135.28652344 95.85644531 134.1875 96.4375 C132.07547673 97.55866568 129.96477146 98.6823181 127.85546875 99.80859375 C126.84919434 100.34339355 125.84291992 100.87819336 124.80615234 101.42919922 C121.69020093 103.17341632 118.77699264 105.11173967 115.9074707 107.23461914 C112.98489407 108.40731564 111.00966568 107.78550705 108 107 C105.16113281 105.65576172 105.16113281 105.65576172 102.203125 103.9296875 C100.53805908 102.96760376 100.53805908 102.96760376 98.83935547 101.98608398 C97.64282297 101.28252651 96.44637333 100.57882811 95.25 99.875 C93.99807333 99.14763221 92.74562307 98.42116493 91.49267578 97.69555664 C88.91524013 96.20124546 86.3407335 94.70207169 83.76855469 93.19873047 C79.21228349 90.53724566 74.63893192 87.90566389 70.06542969 85.27392578 C66.85167286 83.42407279 63.64031524 81.57012167 60.4296875 79.71484375 C55.03729829 76.59893141 49.64339094 73.4856631 44.24853516 70.37402344 C42.09949058 69.134277 39.95072305 67.89405017 37.80224609 66.65332031 C32.70897661 63.71254046 27.61329097 60.77618358 22.50927734 57.85409546 C20.0884338 56.46781169 17.66892111 55.07921453 15.24951172 53.69042969 C13.53352383 52.70671796 11.81560807 51.72637165 10.09765625 50.74609375 C9.06511719 50.153125 8.03257812 49.56015625 6.96875 48.94921875 C6.05544922 48.42674561 5.14214844 47.90427246 4.20117188 47.3659668 C2 46 2 46 0 44 C-0.24050903 42.08908081 -0.24050903 42.08908081 -0.22705078 39.73388672 C-0.22689972 38.85312469 -0.22674866 37.97236267 -0.22659302 37.06491089 C-0.21627045 36.11278717 -0.20594788 35.16066345 -0.1953125 34.1796875 C-0.1924826 33.20589142 -0.18965271 32.23209534 -0.18673706 31.22879028 C-0.17551913 28.11073651 -0.1504117 24.99296732 -0.125 21.875 C-0.11497228 19.76432706 -0.10584607 17.65364962 -0.09765625 15.54296875 C-0.07557458 10.36188165 -0.04208129 5.18096115 0 0 Z " fill="#010101" transform="translate(252,38)"/>
<path d="M0 0 C3.46397918 1.6691245 6.75453998 3.60551998 10.0625 5.5625 C10.98828857 6.10100586 11.91407715 6.63951172 12.86791992 7.19433594 C19.98181631 11.34932218 27.03201415 15.60461004 34 20 C31.05163811 23.21504129 28.12712581 25.2436199 24.30078125 27.3203125 C23.1830835 27.93261719 22.06538574 28.54492188 20.91381836 29.17578125 C20.32631805 29.49369629 19.73881775 29.81161133 19.1335144 30.13916016 C16.0471837 31.81000239 12.97362224 33.50407152 9.8984375 35.1953125 C9.29202927 35.5280719 8.68562103 35.8608313 8.06083679 36.20367432 C3.47250546 38.72581076 -1.06410521 41.32137389 -5.5625 44 C-12.44968862 48.09350727 -19.37184132 52.12272987 -26.3125 56.125 C-27.41327881 56.75978271 -28.51405762 57.39456543 -29.64819336 58.04858398 C-38.38437472 63.08044853 -47.13913594 68.07935933 -55.8972168 73.07296753 C-64.06356225 77.73057418 -72.20021103 82.43632985 -80.3125 87.1875 C-88.48895271 91.97349878 -96.69490331 96.70374574 -104.9375 101.375 C-105.93370361 101.94114014 -106.92990723 102.50728027 -107.95629883 103.09057617 C-108.86661865 103.60467041 -109.77693848 104.11876465 -110.71484375 104.6484375 C-111.52042725 105.10395996 -112.32601074 105.55948242 -113.15600586 106.02880859 C-115 107 -115 107 -116 107 C-116 92.15 -116 77.3 -116 62 C-111.9575 59.69 -107.915 57.38 -103.75 55 C-102.38359375 54.21898926 -101.0171875 53.43797852 -99.609375 52.63330078 C-93.32485254 49.04119225 -87.03907849 45.45131397 -80.75 41.8671875 C-68.83963807 35.07723748 -56.95706496 28.2438465 -45.12548828 21.31713867 C-36.98615268 16.55885226 -28.81143123 11.86411164 -20.625 7.1875 C-20.00383301 6.83244385 -19.38266602 6.4773877 -18.74267578 6.11157227 C-5.53220535 -1.43701655 -5.53220535 -1.43701655 0 0 Z " fill="#010101" transform="translate(368,285)"/>
<path d="M0 0 C0 40.92 0 81.84 0 124 C-3.97420874 122.4103165 -7.43354247 120.7396846 -11.1484375 118.6640625 C-11.72405426 118.34343842 -12.29967102 118.02281433 -12.89273071 117.69247437 C-14.72172763 116.67277305 -16.54836293 115.64892136 -18.375 114.625 C-19.5936015 113.94504629 -20.81235025 113.26535641 -22.03125 112.5859375 C-27.70482248 109.42000864 -33.35873635 106.22357923 -39 103 C-39 75.94 -39 48.88 -39 21 C-33.06 17.7 -27.12 14.4 -21 11 C-16.67071073 8.49387399 -12.35268738 5.97420208 -8.05078125 3.421875 C-6.89642578 2.74511719 -6.89642578 2.74511719 -5.71875 2.0546875 C-5.04779297 1.65749512 -4.37683594 1.26030273 -3.68554688 0.85107422 C-2 0 -2 0 0 0 Z " fill="#020202" transform="translate(362,153)"/>
<path d="M0 0 C4.09310809 1.63724323 7.59734153 3.37747745 11.40234375 5.5546875 C12.30262047 6.06891769 12.30262047 6.06891769 13.22108459 6.59353638 C14.48511088 7.31650302 15.74823428 8.04105031 17.01049805 8.76708984 C18.92591639 9.86834012 20.84453389 10.96384128 22.76367188 12.05859375 C29.63701031 15.99509597 29.63701031 15.99509597 33 18 C34.03352097 18.54275574 35.06704193 19.08551147 36.13188171 19.64471436 C39 22 39 22 39.88302612 25.42391968 C39.97315908 26.80619091 40.030618 28.19083264 40.06201172 29.57568359 C40.1211525 30.71325607 40.1211525 30.71325607 40.18148804 31.87380981 C40.29965291 34.38205862 40.36979503 36.88815307 40.4296875 39.3984375 C40.45414066 40.25990009 40.47859383 41.12136269 40.50378799 42.00893021 C40.62890487 46.57666524 40.71469116 51.14332575 40.77099609 55.71240234 C40.82405291 59.47554216 40.9487043 63.22528255 41.14013672 66.98388672 C42.64813473 97.20223834 42.64813473 97.20223834 36.68344116 105.04656982 C31.06558913 109.84164416 24.8450794 112.58274984 17.90336609 114.94711304 C13.80297123 116.43409475 10.24440266 118.56911661 6.5625 120.875 C1.12970711 124 1.12970711 124 0 124 C0 83.08 0 42.16 0 0 Z " fill="#000000" transform="translate(138,153)"/>
<path d="M0 0 C1.901863 0.91684393 3.76897958 1.90758867 5.60546875 2.94921875 C6.67216797 3.55056641 7.73886719 4.15191406 8.83789062 4.77148438 C9.94326172 5.40376953 11.04863281 6.03605469 12.1875 6.6875 C13.27353516 7.30044922 14.35957031 7.91339844 15.47851562 8.54492188 C18.66156851 10.34769597 21.83226165 12.17047459 25 14 C26.49974365 14.85392334 26.49974365 14.85392334 28.02978516 15.72509766 C28.94421387 16.25538574 29.85864258 16.78567383 30.80078125 17.33203125 C31.61329346 17.79971924 32.42580566 18.26740723 33.26293945 18.74926758 C33.83616943 19.16200928 34.40939941 19.57475098 35 20 C35 20.66 35 21.32 35 22 C34.27748047 22.41137207 33.55496094 22.82274414 32.81054688 23.24658203 C20.06981884 30.50428987 7.33907304 37.77506236 -5.3125 45.1875 C-13.93625968 50.23892566 -22.61048781 55.19115942 -31.32373047 60.08642578 C-39.58421874 64.73783861 -47.7709821 69.51108852 -55.93359375 74.33203125 C-56.87203125 74.88375 -57.81046875 75.43546875 -58.77734375 76.00390625 C-59.59452881 76.48674072 -60.41171387 76.9695752 -61.25366211 77.46704102 C-64.77688813 79.43364571 -68.37927736 81.22090623 -72 83 C-75.76627477 44.34739803 -75.76627477 44.34739803 -70.06347656 34.73632812 C-64.76667952 29.81920749 -58.27080955 27.59318554 -51.51220703 25.31542969 C-45.44580428 23.04337505 -40.08660821 19.59470833 -34.5625 16.25 C-32.39588463 15.0005921 -30.22667199 13.75567565 -28.0546875 12.515625 C-24.25645489 10.32576062 -20.49121241 8.09546112 -16.7578125 5.796875 C-15.58496704 5.08096191 -15.58496704 5.08096191 -14.38842773 4.35058594 C-12.97130532 3.48097738 -11.5612689 2.59965859 -10.16040039 1.70410156 C-6.22933938 -0.6990415 -4.38764591 -1.29741782 0 0 Z " fill="#020202" transform="translate(324,260)"/>
<path d="M0 0 C2.43994141 1.14477539 2.43994141 1.14477539 4.8515625 2.59765625 C5.77155029 3.14405762 6.69153809 3.69045898 7.6394043 4.25341797 C8.62465088 4.85041504 9.60989746 5.44741211 10.625 6.0625 C12.76867309 7.33868218 14.91324269 8.61335936 17.05859375 9.88671875 C18.74831299 10.8929126 18.74831299 10.8929126 20.47216797 11.91943359 C24.07558179 14.05377009 27.70728475 16.13650176 31.34765625 18.20703125 C31.96058533 18.55566727 32.5735144 18.90430328 33.20501709 19.26350403 C36.17433386 20.95066929 39.14561748 22.63431732 42.11767578 24.31665039 C44.32340869 25.57081144 46.51537641 26.84952444 48.69213867 28.15332031 C51.99109034 30.09002041 51.99109034 30.09002041 55.69262695 31.46386719 C59.71335939 33.26374605 62.13629778 34.6293158 65 38 C67.12840193 45.22683433 66.21540733 53.08042345 65.8125 60.5 C65.74723951 62.58315357 65.68793276 64.6665027 65.63476562 66.75 C65.49198291 71.83818151 65.268047 76.9169407 65 82 C61.08052503 80.79144199 57.66965476 79.40287385 54.1484375 77.3046875 C52.77002686 76.49076538 52.77002686 76.49076538 51.36376953 75.66040039 C50.37747559 75.07121826 49.39118164 74.48203613 48.375 73.875 C46.21424569 72.59906743 44.05275748 71.32437705 41.890625 70.05078125 C40.76205078 69.3851416 39.63347656 68.71950195 38.47070312 68.03369141 C32.72054507 64.65487651 26.92052827 61.36261114 21.125 58.0625 C18.75750893 56.71277147 16.3904073 55.36236116 14.0234375 54.01171875 C13.43861603 53.67804291 12.85379456 53.34436707 12.25125122 53.00057983 C-6.23266259 42.44926176 -24.62777472 31.74426973 -43 21 C-39.5914223 18.14825762 -36.17586601 15.83707356 -32.2890625 13.6875 C-31.20882812 13.08679688 -30.12859375 12.48609375 -29.015625 11.8671875 C-27.33726562 10.94292969 -27.33726562 10.94292969 -25.625 10 C-23.40874397 8.77103204 -21.19259524 7.54187054 -18.9765625 6.3125 C-17.9340332 5.74144531 -16.89150391 5.17039062 -15.81738281 4.58203125 C-13.51493571 3.28914934 -11.30812282 1.92200314 -9.0859375 0.5 C-5.34521592 -1.31827479 -3.97565403 -0.96645216 0 0 Z " fill="#010101" transform="translate(183,260)"/>
<path d="M0 0 C6.2352447 2.98624429 12.31279382 6.1058788 18.2109375 9.71875 C19.22800781 10.34007812 20.24507812 10.96140625 21.29296875 11.6015625 C23.37863719 12.88627081 25.45660901 14.18354473 27.52734375 15.4921875 C28.53667969 16.10320312 29.54601562 16.71421875 30.5859375 17.34375 C31.4836084 17.90255859 32.3812793 18.46136719 33.30615234 19.03710938 C36.94196329 20.33669596 38.52899465 19.56581792 42 18 C43.73339814 17.09679795 45.44001466 16.14047884 47.1171875 15.13671875 C48.05433594 14.57919922 48.99148438 14.02167969 49.95703125 13.44726562 C51.40142578 12.57618164 51.40142578 12.57618164 52.875 11.6875 C54.30779297 10.83381836 54.30779297 10.83381836 55.76953125 9.96289062 C60.71317708 7.0095878 65.5938365 4.01230736 70.34814453 0.76098633 C72 0 72 0 75 1 C79.48574746 9.14080094 79.1353231 20.81292914 77.49609375 29.74609375 C75.90196416 35.00216675 73.15330841 39.53597906 70 44 C69.29875 45.010625 68.5975 46.02125 67.875 47.0625 C61.33489355 54.58979233 51.29234846 59.50743469 41.45703125 60.27734375 C28.4866429 60.60257916 17.43785137 57.9248961 7.734375 48.890625 C-2.05646358 38.37453912 -4.47875069 27.85456873 -4.3359375 13.6875 C-3.8701159 8.57429542 -2.27451339 4.54187047 0 0 Z " fill="#010101" transform="translate(213,196)"/>
<path d="M0 0 C0.66 0 1.32 0 2 0 C2.06945342 9.9876962 2.12278753 19.97533512 2.15543652 29.96322346 C2.17110494 34.6008131 2.19236458 39.23823775 2.22631836 43.87573242 C2.25887 48.34962273 2.27684415 52.82335417 2.28463173 57.29735374 C2.2901828 59.00583587 2.3010225 60.71430912 2.31719017 62.42272377 C2.33890904 64.81236312 2.34196931 67.20134258 2.34057617 69.59106445 C2.351362 70.30028549 2.36214783 71.00950653 2.3732605 71.74021912 C2.34295282 76.53194036 2.34295282 76.53194036 0.63287354 78.86584473 C-1.65847636 80.45736208 -4.00316479 81.85836531 -6.43359375 83.23046875 C-8.09998901 84.17647949 -8.09998901 84.17647949 -9.80004883 85.14160156 C-11.01250259 85.82362097 -12.22498708 86.50558577 -13.4375 87.1875 C-14.68477909 87.89369349 -15.9317638 88.60040715 -17.1784668 89.30761719 C-19.78614442 90.78634563 -22.39509734 92.26278813 -25.00488281 93.73779297 C-30.84469164 97.04112098 -36.6670039 100.37504717 -42.49026489 103.70742798 C-46.41063882 105.95042734 -50.33232569 108.19112271 -54.25634766 110.42773438 C-55.93316831 111.38864602 -57.60583633 112.35691067 -59.27099609 113.33789062 C-63.79914623 116 -63.79914623 116 -66 116 C-66 105.11 -66 94.22 -66 83 C-60.72 81.68 -55.44 80.36 -50 79 C-36.89917113 72.44958557 -29.55268651 63.50043179 -24.85546875 49.6171875 C-22.4987165 39.65210721 -23.44196707 29.51266836 -27 20 C-27.34253223 18.66900016 -27.67716018 17.33591292 -28 16 C-27.18732666 15.55084229 -26.37465332 15.10168457 -25.53735352 14.63891602 C-22.53057709 12.97604654 -19.52464822 11.31166529 -16.51928711 9.64624023 C-15.21689115 8.92492574 -13.91415759 8.20422045 -12.61108398 7.48413086 C-10.74113893 6.45064658 -8.87240788 5.41499737 -7.00390625 4.37890625 C-5.87799072 3.7557251 -4.7520752 3.13254395 -3.59204102 2.49047852 C-1.148047 1.23488288 -1.148047 1.23488288 0 0 Z " fill="#040404" transform="translate(318,177)"/>
<path d="M0 0 C0.93070312 0.53882813 1.86140625 1.07765625 2.8203125 1.6328125 C3.91601562 2.23351562 5.01171875 2.83421875 6.140625 3.453125 C7.41184265 4.21639884 8.67985195 4.98503125 9.9453125 5.7578125 C17.84200719 10.49296819 25.81821022 15.07925365 33.8203125 19.6328125 C44.20442841 25.54772748 54.54676934 31.52739257 64.8203125 37.6328125 C60.73532271 42.17598822 55.04299346 44.78592269 49.8203125 47.8203125 C48.71429688 48.47451172 47.60828125 49.12871094 46.46875 49.80273438 C45.40914063 50.42083984 44.34953125 51.03894531 43.2578125 51.67578125 C42.28714844 52.24321045 41.31648438 52.81063965 40.31640625 53.39526367 C37.8203125 54.6328125 37.8203125 54.6328125 34.8203125 54.6328125 C33.6015625 53.12890625 33.6015625 53.12890625 32.3203125 51.0703125 C25.87036527 42.11645455 15.42373021 37.64112611 4.8203125 35.6328125 C-9.1838464 34.36884739 -20.07156043 36.88599388 -31.1796875 45.6328125 C-33.37199172 48.01153715 -35.39306085 50.41636095 -37.328125 53.0078125 C-37.93914062 53.5440625 -38.55015625 54.0803125 -39.1796875 54.6328125 C-43.32287823 54.2562809 -46.32812716 52.62026375 -49.8828125 50.54296875 C-50.945 49.92357422 -52.0071875 49.30417969 -53.1015625 48.66601562 C-54.19984375 48.01568359 -55.298125 47.36535156 -56.4296875 46.6953125 C-57.5434375 46.04884766 -58.6571875 45.40238281 -59.8046875 44.73632812 C-68.04820687 39.89577376 -68.04820687 39.89577376 -69.1796875 37.6328125 C-66.33448267 36.00698117 -63.48927298 34.38115836 -60.64404297 32.75537109 C-58.14296107 31.32619334 -55.64199786 29.89680817 -53.14111328 28.46728516 C-47.20959501 25.07700579 -41.27759054 21.68760038 -35.34204102 18.30438232 C-32.84477684 16.88088412 -30.34797227 15.45658082 -27.85119629 14.03222656 C-26.10013411 13.03372729 -24.34841551 12.03637948 -22.59667969 11.0390625 C-21.50774414 10.41773438 -20.41880859 9.79640625 -19.296875 9.15625 C-18.26014648 8.5694043 -17.22341797 7.98255859 -16.15527344 7.37792969 C-14.19448019 6.2279666 -12.26326212 5.02578812 -10.36816406 3.77050781 C-3.94826958 -0.45594268 -3.94826958 -0.45594268 0 0 Z " fill="#020202" transform="translate(252.1796875,135.3671875)"/>
<path d="M0 0 C5.89649509 2.30751862 11.24493723 5.38609333 16.75 8.5 C18.34908203 9.39138672 18.34908203 9.39138672 19.98046875 10.30078125 C20.99238281 10.87183594 22.00429687 11.44289062 23.046875 12.03125 C24.43664551 12.81338867 24.43664551 12.81338867 25.85449219 13.61132812 C28 15 28 15 29 17 C28.40667815 18.58318544 27.74852016 20.14222226 27.0625 21.6875 C22.70713724 33.31191767 24.35876562 45.69126962 29 57 C35.04356381 68.16911792 43.34017392 74.43745936 55 79 C58.96 79.99 62.92 80.98 67 82 C67 92.89 67 103.78 67 115 C63.37193866 113.54877547 60.25771216 112.12455815 56.88671875 110.234375 C55.89768555 109.68088379 54.90865234 109.12739258 53.88964844 108.55712891 C52.83293945 107.96077637 51.77623047 107.36442383 50.6875 106.75 C49.58825195 106.1317334 48.48900391 105.5134668 47.35644531 104.87646484 C39.62299631 100.51329925 31.92329463 96.09316517 24.25 91.625 C22.8436731 90.80660645 22.8436731 90.80660645 21.40893555 89.97167969 C19.61794912 88.92352853 17.83755352 87.85697369 16.07061768 86.76876831 C13.01393691 84.93172348 13.01393691 84.93172348 9.65003967 83.54232788 C5.67850444 81.62776979 3.14702329 80.11084863 0 77 C-1.81945738 71.10901053 -1.52400431 65.48246448 -1.26953125 59.375 C-1.24525543 57.66014604 -1.22676414 55.94520132 -1.21379089 54.23022461 C-1.16436994 49.73637802 -1.03690603 45.24807719 -0.89263916 40.75640869 C-0.75915524 36.16519209 -0.70017643 31.5730703 -0.63476562 26.98046875 C-0.49573367 17.98455452 -0.27416074 8.99273993 0 0 Z " fill="#010101" transform="translate(181,178)"/>
<path d="M0 0 C3.95068344 3.22036343 7.07624479 5.84048918 8 11 C4.39893498 13.2563226 0.7810892 15.48291097 -2.85058594 17.68945312 C-4.36479726 18.61270237 -5.87555954 19.5416202 -7.38378906 20.47460938 C-9.89165642 22.02107858 -12.41298516 23.54339001 -14.9375 25.0625 C-15.7416333 25.56370361 -16.5457666 26.06490723 -17.37426758 26.58129883 C-18.14665771 27.04044678 -18.91904785 27.49959473 -19.71484375 27.97265625 C-20.39667725 28.38781494 -21.07851074 28.80297363 -21.78100586 29.23071289 C-25.82875739 30.63399874 -29.03746537 29.46079323 -32.7890625 27.66479492 C-33.72492188 27.10896729 -34.66078125 26.55313965 -35.625 25.98046875 C-36.66140625 25.37009766 -37.6978125 24.75972656 -38.765625 24.13085938 C-40.36664063 23.16889648 -40.36664063 23.16889648 -42 22.1875 C-43.06734375 21.55779297 -44.1346875 20.92808594 -45.234375 20.27929688 C-50.24505662 17.30965783 -55.20363614 14.30582718 -60 11 C-58.62710887 5.3368241 -54.55153163 2.25109402 -50 -1 C-33.39633065 -10.60134566 -16.14698968 -10.67549468 0 0 Z " fill="#020202" transform="translate(276,182)"/>
<path d="M0 0 C5.28 0 10.56 0 16 0 C19.40963341 3.61945701 20.89444557 5.73822271 23 10 C24.29355964 12.05371919 25.60577082 14.09582371 26.9375 16.125 C27.96064749 17.74854393 28.98235328 19.37300251 30 21 C32.28556591 18.8550328 33.98418616 16.66571086 35.6640625 14.0234375 C36.14617187 13.270625 36.62828125 12.5178125 37.125 11.7421875 C37.62 10.96101563 38.115 10.17984375 38.625 9.375 C39.61615275 7.81965261 40.60828833 6.26493096 41.6015625 4.7109375 C42.25632568 3.67912354 42.25632568 3.67912354 42.92431641 2.62646484 C44 1 44 1 45 0 C50.28 0 55.56 0 61 0 C61 10.56 61 21.12 61 32 C56.38 32 51.76 32 47 32 C46.67 26.39 46.34 20.78 46 15 C45.40574219 16.2271875 44.81148438 17.454375 44.19921875 18.71875 C38.04990921 30.71844431 38.04990921 30.71844431 33.23828125 33.7265625 C29.56171493 34.2615265 28.17968803 33.9878672 25 32 C20.74973188 26.92016833 17.87027819 20.92734239 15 15 C14.67 20.61 14.34 26.22 14 32 C9.38 32 4.76 32 0 32 C0 21.44 0 10.88 0 0 Z " fill="#F8F8F8" transform="translate(229,444)"/>
<path d="M0 0 C4.71450798 -0.0691427 9.42723333 -0.12879086 14.1418457 -0.16479492 C15.74314356 -0.17981466 17.34440075 -0.20023663 18.94555664 -0.22631836 C21.25677571 -0.26300438 23.56744756 -0.27979435 25.87890625 -0.29296875 C26.58648575 -0.30845261 27.29406525 -0.32393646 28.02308655 -0.33988953 C33.15667076 -0.34159972 36.51834826 0.69020674 41 3 C43.60704898 5.60704898 43.23905333 7.47338241 43.265625 11.02734375 C43 13 43 13 41 16 C42.2684375 16.7734375 42.2684375 16.7734375 43.5625 17.5625 C46 20 46 20 46.125 23.5 C44.79495074 27.63793104 43.73337774 28.8429373 40 31 C35.32628569 32.0406417 30.74162203 32.13216225 25.9765625 32.09765625 C25.23038666 32.0962413 24.48421082 32.09482635 23.71542358 32.09336853 C21.35190682 32.08780874 18.98848773 32.07526389 16.625 32.0625 C15.01432429 32.0574798 13.40364709 32.0529178 11.79296875 32.04882812 C7.86191202 32.03870697 3.93106428 32.0191241 0 32 C0 21.44 0 10.88 0 0 Z " fill="#FAFAFA" transform="translate(439,444)"/>
<path d="M0 0 C4.62 0 9.24 0 14 0 C14.49371094 1.21558594 14.98742187 2.43117188 15.49609375 3.68359375 C16.14309709 5.2682831 16.7902397 6.85291559 17.4375 8.4375 C17.76298828 9.23994141 18.08847656 10.04238281 18.42382812 10.86914062 C18.73642578 11.63291016 19.04902344 12.39667969 19.37109375 13.18359375 C19.65911865 13.89056396 19.94714355 14.59753418 20.24389648 15.32592773 C20.88053845 16.99832767 20.88053845 16.99832767 22 18 C24.64 12.06 27.28 6.12 30 0 C32.97 0 35.94 0 39 0 C39.959938 2.06175364 40.91788424 4.12443469 41.875 6.1875 C42.40867187 7.33605469 42.94234375 8.48460937 43.4921875 9.66796875 C44.73886913 12.42294137 45.90661592 15.18161677 47 18 C49.73272614 12.02688712 52.44492632 6.05149029 55 0 C59.62 0 64.24 0 69 0 C64.20637326 10.78033391 59.38767686 21.5009374 54 32 C50.04 32 46.08 32 42 32 C39.69 26.06 37.38 20.12 35 14 C32.1398269 16.8601731 31.22254523 20.39184838 29.875 24.125 C29.59785156 24.87910156 29.32070313 25.63320313 29.03515625 26.41015625 C28.35183 28.27163121 27.67526611 30.13558602 27 32 C23.04 32 19.08 32 15 32 C12.86128497 27.60463725 10.72510623 23.20805482 8.59130859 18.81030273 C7.86447287 17.31321627 7.13693501 15.81647048 6.40869141 14.32006836 C5.36437845 12.17389866 4.322565 10.02653182 3.28125 7.87890625 C2.78908997 6.86951744 2.78908997 6.86951744 2.2869873 5.83973694 C0 1.11387171 0 1.11387171 0 0 Z " fill="#F8F8F8" transform="translate(324,444)"/>
<path d="M0 0 C4.62 0 9.24 0 14 0 C14 4.29 14 8.58 14 13 C19.61 13 25.22 13 31 13 C31 8.71 31 4.42 31 0 C35.29 0 39.58 0 44 0 C44 10.56 44 21.12 44 32 C39.71 32 35.42 32 31 32 C31 27.71 31 23.42 31 19 C25.39 19 19.78 19 14 19 C14 23.29 14 27.58 14 32 C9.38 32 4.76 32 0 32 C0 21.44 0 10.88 0 0 Z " fill="#FBFBFB" transform="translate(58,444)"/>
<path d="M0 0 C2.5 1.9375 2.5 1.9375 4 4 C4 5.32 4 6.64 4 8 C-10.50421804 8.18105127 -10.50421804 8.18105127 -17 7 C-17.66 7 -18.32 7 -19 7 C-19 7.99 -19 8.98 -19 10 C-17.96552734 9.96519531 -17.96552734 9.96519531 -16.91015625 9.9296875 C-9.67641278 9.79076787 -2.6829167 9.72009919 3.625 13.625 C5.31532156 16.54464633 5.34669145 18.73499184 4.73828125 22.03515625 C3.42139956 25.53987313 1.07064966 27.03014927 -2 29 C-9.39036778 31.92942255 -17.95389607 32.32490955 -25.5625 29.8125 C-29.14671816 27.92263951 -30.92481264 26.45864561 -33 23 C-33 22.01 -33 21.02 -33 20 C-19.15228948 19.8271437 -19.15228948 19.8271437 -14.75 20.625 C-13.8425 20.74875 -12.935 20.8725 -12 21 C-11.34 20.34 -10.68 19.68 -10 19 C-10.92941406 18.96261719 -11.85882813 18.92523438 -12.81640625 18.88671875 C-20.66634648 18.46925582 -26.31144048 17.9303497 -33 13.75 C-34.74854538 10.69004558 -33.8513599 8.29192496 -33 5 C-30.6717672 0.90231027 -27.96774286 -1.02573832 -23.47265625 -2.49609375 C-15.34814281 -4.15180028 -7.40220113 -3.7683933 0 0 Z " fill="#F6F6F6" transform="translate(49,446)"/>
<path d="M0 0 C12.21 0 24.42 0 37 0 C37 2.64 37 5.28 37 8 C29.41 8 21.82 8 14 8 C14 9.65 14 11.3 14 13 C20.27 13 26.54 13 33 13 C33 14.98 33 16.96 33 19 C26.4 19 19.8 19 13 19 C13 20.65 13 22.3 13 24 C21.58 24 30.16 24 39 24 C39 26.64 39 29.28 39 32 C26.13 32 13.26 32 0 32 C0 21.44 0 10.88 0 0 Z " fill="#FBFBFB" transform="translate(396,444)"/>
<path d="M0 0 C3.81662426 -0.23451547 6.47553615 -0.12024921 10.1171875 1.11328125 C13.85364153 4.95695061 16.31168172 9.20559241 18.87158203 13.88769531 C20.58555324 16.95013388 22.47704435 19.88680668 24.3684082 22.84179688 C30.1171875 31.82407297 30.1171875 31.82407297 30.1171875 33.11328125 C25.4971875 33.11328125 20.8771875 33.11328125 16.1171875 33.11328125 C15.4571875 31.79328125 14.7971875 30.47328125 14.1171875 29.11328125 C7.1871875 29.11328125 0.2571875 29.11328125 -6.8828125 29.11328125 C-7.5428125 30.43328125 -8.2028125 31.75328125 -8.8828125 33.11328125 C-13.5028125 33.11328125 -18.1228125 33.11328125 -22.8828125 33.11328125 C-18.46264257 24.62190217 -13.47413621 16.6916177 -8.02978516 8.83227539 C-6.93077704 7.18516681 -5.94248139 5.46579056 -4.9609375 3.74609375 C-2.8828125 1.11328125 -2.8828125 1.11328125 0 0 Z " fill="#F9F9F9" transform="translate(195.8828125,442.88671875)"/>
<path d="M0 0 C4.62 0 9.24 0 14 0 C14.63808594 1.43214844 15.27617187 2.86429687 15.93359375 4.33984375 C16.76810921 6.20578282 17.60275115 8.07166533 18.4375 9.9375 C18.85837891 10.88302734 19.27925781 11.82855469 19.71289062 12.80273438 C20.11572266 13.70185547 20.51855469 14.60097656 20.93359375 15.52734375 C21.4913147 16.77632446 21.4913147 16.77632446 22.06030273 18.05053711 C22.84730109 19.95727812 22.84730109 19.95727812 24 21 C24.2673999 20.39937744 24.5347998 19.79875488 24.81030273 19.17993164 C26.01700028 16.47305806 27.22720141 13.76776528 28.4375 11.0625 C28.85837891 10.11697266 29.27925781 9.17144531 29.71289062 8.19726562 C30.11572266 7.29814453 30.51855469 6.39902344 30.93359375 5.47265625 C31.30540771 4.64000244 31.67722168 3.80734863 32.06030273 2.94946289 C33 1 33 1 34 0 C36.35313555 -0.07271741 38.70833668 -0.08370868 41.0625 -0.0625 C42.35285156 -0.05347656 43.64320313 -0.04445313 44.97265625 -0.03515625 C45.97167969 -0.02355469 46.97070312 -0.01195312 48 0 C46.00530399 3.66956733 44.00322699 7.3350856 42 11 C41.33291016 12.22154785 41.33291016 12.22154785 40.65234375 13.46777344 C39.16594485 16.18788343 37.6769427 18.90655567 36.1875 21.625 C35.69531982 22.52637695 35.20313965 23.42775391 34.69604492 24.35644531 C34.23302979 25.20045898 33.77001465 26.04447266 33.29296875 26.9140625 C32.8755542 27.6767041 32.45813965 28.4393457 32.02807617 29.22509766 C31 31 31 31 30 32 C27.81360547 32.07258946 25.62499611 32.08373783 23.4375 32.0625 C21.64119141 32.04896484 21.64119141 32.04896484 19.80859375 32.03515625 C18.88175781 32.02355469 17.95492187 32.01195312 17 32 C14.89652618 28.24848689 12.79705156 24.49477238 10.70117188 20.73901367 C9.9883866 19.46301808 9.27453314 18.18761855 8.55957031 16.9128418 C7.52904886 15.07498286 6.50245312 13.23497821 5.4765625 11.39453125 C4.85861816 10.28956299 4.24067383 9.18459473 3.60400391 8.04614258 C2 5 2 5 0 0 Z " fill="#F8F8F8" transform="translate(125,444)"/>
<path d="M0 0 C4.62 0 9.24 0 14 0 C14 10.56 14 21.12 14 32 C9.38 32 4.76 32 0 32 C0 21.44 0 10.88 0 0 Z " fill="#F5F5F5" transform="translate(108,444)"/>
<path d="M0 0 C5.28 0 10.56 0 16 0 C16.33 1.32 16.66 2.64 17 4 C16 5 16 5 12.40234375 5.09765625 C10.91403133 5.0909822 9.42573568 5.07902183 7.9375 5.0625 C7.17888672 5.05798828 6.42027344 5.05347656 5.63867188 5.04882812 C3.75908129 5.0370068 1.87953101 5.01907078 0 5 C0 3.35 0 1.7 0 0 Z " fill="#070707" transform="translate(452,463)"/>
<path d="M0 0 C4.95 0 9.9 0 15 0 C15.33 1.32 15.66 2.64 16 4 C15 5 15 5 11.62109375 5.09765625 C10.22652923 5.09098369 8.83198257 5.07902532 7.4375 5.0625 C6.72658203 5.05798828 6.01566406 5.05347656 5.28320312 5.04882812 C3.52209987 5.03700864 1.76103964 5.01907263 0 5 C0 3.35 0 1.7 0 0 Z " fill="#090909" transform="translate(452,452)"/>
<path d="M0 0 C3.35585467 3.0202692 4.22157001 4.55392503 6 9 C2.37 9 -1.26 9 -5 9 C-3.35 6.03 -1.7 3.06 0 0 Z " fill="#141414" transform="translate(199,454)"/>
<path d="M0 0 C0 0.99 0 1.98 0 3 C-6.75 4.125 -6.75 4.125 -9 3 C-11.37123246 2.76970044 -13.74741943 2.58880058 -16.125 2.4375 C-17.40632813 2.35371094 -18.68765625 2.26992188 -20.0078125 2.18359375 C-21.48894531 2.09271484 -21.48894531 2.09271484 -23 2 C-23.33 2.66 -23.66 3.32 -24 4 C-24 3.01 -24 2.02 -24 1 C-15.98866917 0.40891367 -8.03770278 -0.14101233 0 0 Z " fill="#242424" transform="translate(39,464)"/>
<path d="M0 0 C5.44026682 0.72947035 10.9427251 0.96730273 16.41796875 1.32421875 C16.74796875 0.66421875 17.07796875 0.00421875 17.41796875 -0.67578125 C17.41796875 0.31421875 17.41796875 1.30421875 17.41796875 2.32421875 C9.40400629 2.97087855 1.4600963 3.49099098 -6.58203125 3.32421875 C-6.58203125 2.33421875 -6.58203125 1.34421875 -6.58203125 0.32421875 C-4.10437699 -0.91460838 -2.65785107 -0.43636361 0 0 Z " fill="#323232" transform="translate(36.58203125,452.67578125)"/>
</svg>
