<?xml version="1.0" encoding="UTF-8"?>
<svg version="1.1" xmlns="http://www.w3.org/2000/svg" width="481" height="323">
<path d="M0 0 C158.73 0 317.46 0 481 0 C481 106.59 481 213.18 481 323 C322.27 323 163.54 323 0 323 C0 216.41 0 109.82 0 0 Z " fill="#16284D" transform="translate(0,0)"/>
<path d="M0 0 C18.406776 15.48849353 31.0871182 34.85104701 38.265625 57.79296875 C38.48863281 58.48261719 38.71164062 59.17226562 38.94140625 59.8828125 C47.09463652 88.32576085 41.25776443 119.96697003 27.49365234 145.62402344 C12.6519936 171.83740241 -11.25394433 189.71032342 -39.734375 198.79296875 C-41.58095703 199.41365234 -41.58095703 199.41365234 -43.46484375 200.046875 C-52.84641555 202.88811007 -62.15979474 203.17419281 -71.921875 203.23046875 C-73.79190186 203.2456958 -73.79190186 203.2456958 -75.69970703 203.26123047 C-84.37488274 203.18000437 -92.33093565 201.89805499 -100.734375 199.79296875 C-101.45520264 199.62531006 -102.17603027 199.45765137 -102.91870117 199.28491211 C-130.1346848 192.86086361 -154.0781335 173.76440457 -168.984375 150.41796875 C-175.22331961 139.73536768 -179.8200547 129.38100966 -183.109375 117.48046875 C-183.48570068 116.1203064 -183.48570068 116.1203064 -183.86962891 114.73266602 C-190.84552691 88.07112414 -186.0233117 60.07523198 -173.734375 35.79296875 C-173.404375 35.79296875 -173.074375 35.79296875 -172.734375 35.79296875 C-172.734375 69.12296875 -172.734375 102.45296875 -172.734375 136.79296875 C-154.91357845 134.56536918 -143.35817138 130.2821706 -131.9609375 116.67578125 C-128.18609649 111.4446564 -125.98011837 105.75859276 -123.8125 99.7109375 C-122.734375 96.79296875 -122.734375 96.79296875 -120.734375 92.79296875 C-120.734375 107.31296875 -120.734375 121.83296875 -120.734375 136.79296875 C-102.91357845 134.56536918 -91.35817138 130.2821706 -79.9609375 116.67578125 C-74.72764062 109.42354751 -71.24966874 100.59144853 -69.734375 91.79296875 C-67.9926625 95.070555 -66.74505582 98.43008515 -65.484375 101.91796875 C-59.60597492 117.15069244 -50.83905867 126.68365342 -35.9765625 133.41796875 C-24.01122856 138.49242363 -10.96665468 138.1866039 1.265625 133.79296875 C13.96395161 128.34334303 24.13607346 119.219119 29.703125 106.51171875 C35.4100291 92.11475614 35.9291536 79.27242376 30.046875 64.79296875 C23.4849566 50.50256867 13.71589222 42.99124957 -0.28125 36.63671875 C-11.84813459 32.65829985 -26.81983414 33.26834082 -37.86328125 38.234375 C-52.78465542 46.33454955 -62.35042149 57.78936867 -67.41796875 73.9765625 C-67.88411156 75.57430718 -68.31425538 77.18251022 -68.734375 78.79296875 C-69.064375 78.79296875 -69.394375 78.79296875 -69.734375 78.79296875 C-69.88132812 78.138125 -70.02828125 77.48328125 -70.1796875 76.80859375 C-73.6384719 62.73491927 -79.89105059 51.07620775 -92.171875 42.98046875 C-94.01098679 41.89211766 -95.86450979 40.82759157 -97.734375 39.79296875 C-98.46398437 39.38046875 -99.19359375 38.96796875 -99.9453125 38.54296875 C-106.94889091 35.00212614 -112.32450384 34.99437892 -120.734375 33.79296875 C-120.734375 48.64296875 -120.734375 63.49296875 -120.734375 78.79296875 C-122.734375 75.79296875 -122.734375 75.79296875 -123.484375 72.35546875 C-126.4335558 60.01428142 -133.654654 49.91360885 -144.171875 42.98046875 C-146.01033235 41.89101254 -147.8638793 40.82645127 -149.734375 39.79296875 C-150.47558594 39.38046875 -151.21679688 38.96796875 -151.98046875 38.54296875 C-158.25477361 35.41157256 -164.82545051 34.60452711 -171.734375 33.79296875 C-168.13628687 23.9721002 -160.80143259 16.29396848 -153.734375 8.79296875 C-153.14398438 8.12652344 -152.55359375 7.46007813 -151.9453125 6.7734375 C-138.86344346 -7.37457505 -119.88774342 -16.68824553 -101.734375 -22.20703125 C-100.67992187 -22.52800781 -99.62546875 -22.84898438 -98.5390625 -23.1796875 C-64.52392969 -31.66374035 -26.95035506 -21.91115561 0 0 Z " fill="#FDFDFD" transform="translate(306.734375,39.20703125)"/>
<path d="M0 0 C1.24523437 -0.01160156 2.49046875 -0.02320312 3.7734375 -0.03515625 C4.824104 -0.04494507 4.824104 -0.04494507 5.89599609 -0.05493164 C17.6026699 0.25070791 29.63104974 7.60536884 37.8203125 15.56640625 C45.12305118 23.71982237 48.74511576 32.72536542 52 43 C52.20753906 42.18917969 52.41507813 41.37835938 52.62890625 40.54296875 C54.9003765 32.37898154 58.00350006 25.8373157 63 19 C63.91458984 17.74703125 63.91458984 17.74703125 64.84765625 16.46875 C72.02949962 8.23113656 84.37343866 0.86283972 95.29443359 -0.22949219 C111.91482729 -1.15705028 126.48698539 2.23711963 139.4375 13.25 C149.73186444 23.22319379 155.96821826 36.56826732 156.3125 50.9375 C156.16925128 65.023624 150.93603608 78.12546206 141.25 88.3125 C129.42670642 99.48091055 115.86322513 104.43034144 99.73046875 104.27734375 C85.14388503 103.19289616 72.82662964 95.49082124 63 85 C57.74434241 78.0997931 54.87381723 70.11281147 52 62 C51.70867187 62.75023437 51.41734375 63.50046875 51.1171875 64.2734375 C44.93480062 79.70996323 37.14925018 91.29659458 22 99 C21.19691406 99.41378906 20.39382812 99.82757813 19.56640625 100.25390625 C14.81279751 102.43676338 10.92440948 103.19534707 5.6796875 103.1015625 C4.61218262 103.08689941 3.54467773 103.07223633 2.44482422 103.05712891 C1.63803223 103.03827637 0.83124023 103.01942383 0 103 C-0.8089769 68.62497222 -1.15267831 34.37124677 0 0 Z " fill="#17294E" transform="translate(186,73)"/>
<path d="M0 0 C2.64 0 5.28 0 8 0 C10.49320448 7.96053614 12.86662595 15.93519961 15 24 C17.63781296 17.19792394 19.75036458 10.44813608 21.38671875 3.3359375 C22 1 22 1 23 0 C24.51928038 -0.07179964 26.04167482 -0.08392007 27.5625 -0.0625 C28.38878906 -0.05347656 29.21507812 -0.04445313 30.06640625 -0.03515625 C30.70449219 -0.02355469 31.34257812 -0.01195312 32 0 C32.79201177 2.68739872 33.58361866 5.37491563 34.375 8.0625 C34.59671875 8.81466797 34.8184375 9.56683594 35.046875 10.34179688 C36.3853829 14.88878695 37.70424525 19.44063865 39 24 C40.75610821 18.9286221 42.2060052 13.79773106 43.625 8.625 C43.96917969 7.37783203 43.96917969 7.37783203 44.3203125 6.10546875 C44.88162709 4.07070335 45.44101028 2.03540532 46 0 C48.97 0 51.94 0 55 0 C51.34851767 13.12979818 47.43705319 26.11366468 43 39 C40.36 39 37.72 39 35 39 C32.24966038 33.2242868 30.57195569 27.26768491 28.8671875 21.109375 C28.29512827 19.05820768 27.67338987 17.0201696 27 15 C26.68977905 16.0372522 26.68977905 16.0372522 26.37329102 17.09545898 C25.43965276 20.21047054 24.50114417 23.32399341 23.5625 26.4375 C23.23701172 27.52611328 22.91152344 28.61472656 22.57617188 29.73632812 C22.26357422 30.77080078 21.95097656 31.80527344 21.62890625 32.87109375 C21.34088135 33.82943115 21.05285645 34.78776855 20.75610352 35.77514648 C20 38 20 38 19 39 C16.32941149 39.14115161 13.67567762 39.04247107 11 39 C10.32864578 36.98593735 9.65773152 34.97172755 8.98828125 32.95703125 C8.26259747 30.78571654 7.52979563 28.61677743 6.79296875 26.44921875 C0 6.41177171 0 6.41177171 0 0 Z " fill="#F7F7F9" transform="translate(208,272)"/>
<path d="M0 0 C0.33 0 0.66 0 1 0 C1 33.33 1 66.66 1 101 C2.98 101 4.96 101 7 101 C7 101.33 7 101.66 7 102 C4.03 102 1.06 102 -2 102 C-14.49695107 73.00707353 -16.93376401 43.06964818 -6 13 C-4.2040637 8.56973753 -2.1582802 4.264643 0 0 Z " fill="#F4F5F6" transform="translate(133,75)"/>
<path d="M0 0 C2.64 0 5.28 0 8 0 C8.33 4.29 8.66 8.58 9 13 C10.32 12.34 11.64 11.68 13 11 C17.7522156 10.54010817 19.99699991 10.47921149 24.25 12.6875 C30.74853824 18.15217988 30.74853824 18.15217988 31.34765625 22.5546875 C31.51810486 28.02386449 31.32694123 32.45318032 28 37 C23.84489364 40.75938194 20.54901848 41.56889858 15.125 41.33984375 C12.26339988 40.88219814 10.27531006 39.76153037 8 38 C7.67 38.66 7.34 39.32 7 40 C4.69 40 2.38 40 0 40 C0 26.8 0 13.6 0 0 Z " fill="#FAFBFB" transform="translate(294,271)"/>
<path d="M0 0 C1.15628906 0.11794922 1.15628906 0.11794922 2.3359375 0.23828125 C4.625 0.6875 4.625 0.6875 6.77734375 1.81640625 C7.38707031 2.10386719 7.99679688 2.39132812 8.625 2.6875 C9.7078125 2.006875 9.7078125 2.006875 10.8125 1.3125 C14.74030088 -0.95689606 18.18283379 -1.06090844 22.625 -0.3125 C25.49529869 1.48143668 27.11631638 2.67013276 28.625 5.6875 C28.70949628 7.4279417 28.73223024 9.17159722 28.72265625 10.9140625 C28.71943359 11.9453125 28.71621094 12.9765625 28.71289062 14.0390625 C28.70032227 15.65941406 28.70032227 15.65941406 28.6875 17.3125 C28.68298828 18.40046875 28.67847656 19.4884375 28.67382812 20.609375 C28.66201776 23.30213789 28.64554778 25.99479188 28.625 28.6875 C25.985 28.6875 23.345 28.6875 20.625 28.6875 C20.59994385 28.11717041 20.5748877 27.54684082 20.54907227 26.95922852 C20.43343451 24.38923843 20.31056376 21.81964473 20.1875 19.25 C20.14818359 18.35216797 20.10886719 17.45433594 20.06835938 16.52929688 C20.02646484 15.67529297 19.98457031 14.82128906 19.94140625 13.94140625 C19.88641968 12.75526733 19.88641968 12.75526733 19.83032227 11.54516602 C19.81936743 9.67348559 19.81936743 9.67348559 18.625 8.6875 C15.125 8.52083333 15.125 8.52083333 11.625 8.6875 C10.07549732 10.23700268 10.40844807 11.78740594 10.30859375 13.94140625 C10.26669922 14.79541016 10.22480469 15.64941406 10.18164062 16.52929688 C10.14232422 17.42712891 10.10300781 18.32496094 10.0625 19.25 C10.01931641 20.15169922 9.97613281 21.05339844 9.93164062 21.98242188 C9.82521858 24.21728485 9.72320012 26.45226308 9.625 28.6875 C6.985 28.6875 4.345 28.6875 1.625 28.6875 C1.56441406 27.41132813 1.50382812 26.13515625 1.44140625 24.8203125 C1.35700432 23.15102984 1.27235614 21.48175963 1.1875 19.8125 C1.14818359 18.97074219 1.10886719 18.12898438 1.06835938 17.26171875 C1.02646484 16.45605469 0.98457031 15.65039062 0.94140625 14.8203125 C0.90474854 14.07668457 0.86809082 13.33305664 0.83032227 12.56689453 C0.72544135 10.59885688 0.72544135 10.59885688 -0.375 8.6875 C-2.70794775 8.64508277 -5.04202567 8.64657063 -7.375 8.6875 C-8.92450268 10.23700268 -8.59155193 11.78740594 -8.69140625 13.94140625 C-8.73330078 14.79541016 -8.77519531 15.64941406 -8.81835938 16.52929688 C-8.85767578 17.42712891 -8.89699219 18.32496094 -8.9375 19.25 C-8.98068359 20.15169922 -9.02386719 21.05339844 -9.06835938 21.98242188 C-9.17477984 24.21725156 -9.27542481 26.45235486 -9.375 28.6875 C-12.345 28.6875 -15.315 28.6875 -18.375 28.6875 C-18.375 19.4475 -18.375 10.2075 -18.375 0.6875 C-14.375 0.6875 -10.375 0.6875 -6.375 0.6875 C-3.92525696 -0.53737152 -2.6996727 -0.30046191 0 0 Z " fill="#F5F6F7" transform="translate(165.375,282.3125)"/>
<path d="M0 0 C1.134375 0.556875 2.26875 1.11375 3.4375 1.6875 C3.7675 2.6775 4.0975 3.6675 4.4375 4.6875 C3 6.875 3 6.875 1.4375 8.6875 C0.2 8.1925 0.2 8.1925 -1.0625 7.6875 C-5.44437654 6.43553527 -10.3242491 5.56837455 -14.5625 7.6875 C-15.21805119 10.21483235 -15.21805119 10.21483235 -15.5625 12.6875 C-14.9334375 12.85765625 -14.304375 13.0278125 -13.65625 13.203125 C-7.16233632 15.04176321 -0.65359843 16.88619205 4.4375 21.5 C5.91420499 24.73029216 5.80686103 27.17857022 5.4375 30.6875 C3.76125739 34.37523373 1.86496406 36.54533496 -1.5625 38.6875 C-7.08897414 40.52965805 -13.5983526 40.72066553 -19.12890625 38.79296875 C-21.3125 37.6875 -21.3125 37.6875 -24.5625 35.6875 C-23.96066251 33.66704558 -23.28943904 31.66638961 -22.5625 29.6875 C-21.9025 29.3575 -21.2425 29.0275 -20.5625 28.6875 C-19.69625 29.161875 -18.83 29.63625 -17.9375 30.125 C-13.01350036 32.40462946 -8.78223243 32.42741081 -3.5625 30.6875 C-3.48498436 28.2627575 -3.48498436 28.2627575 -4.5625 25.6875 C-7.05526273 24.43660821 -9.24908062 23.53251054 -11.875 22.6875 C-17.05147531 20.99320171 -20.62541464 19.52114551 -23.5625 14.6875 C-24.47175427 8.32272013 -24.47175427 8.32272013 -22.57421875 4.91015625 C-16.68439388 -2.54785729 -8.60227857 -2.94492419 0 0 Z " fill="#F6F6F8" transform="translate(47.5625,272.3125)"/>
<path d="M0 0 C2.97 0 5.94 0 9 0 C9.33 6.6 9.66 13.2 10 20 C11.423125 18.02 11.423125 18.02 12.875 16 C15.12628224 13.37427452 16.2635699 12.14536211 19.69140625 11.46875 C22.17127693 11.49697043 24.54667751 11.6445891 27 12 C26.59007812 12.53109375 26.18015625 13.0621875 25.7578125 13.609375 C25.21898437 14.31578125 24.68015625 15.0221875 24.125 15.75 C23.59132813 16.44609375 23.05765625 17.1421875 22.5078125 17.859375 C22.01023437 18.56578125 21.51265625 19.2721875 21 20 C20.5153125 20.60070312 20.030625 21.20140625 19.53125 21.8203125 C18.67564635 24.28731051 18.67564635 24.28731051 20.7734375 27.3828125 C21.62472089 28.64111577 22.49269872 29.88824821 23.375 31.125 C28 37.80404412 28 37.80404412 28 40 C24.80656435 40.65172156 22.16729168 40.85196137 19 40 C16.08711192 36.99212644 14.02701356 33.64992796 12 30 C11.34 30.33 10.68 30.66 10 31 C9.53348793 33.12576782 9.53348793 33.12576782 9.375 35.5625 C9.25125 37.026875 9.1275 38.49125 9 40 C6.03 40 3.06 40 0 40 C0 26.8 0 13.6 0 0 Z " fill="#F1F2F4" transform="translate(433,271)"/>
<path d="M0 0 C2.64 0 5.28 0 8 0 C8.33 4.29 8.66 8.58 9 13 C9.99 12.34 10.98 11.68 12 11 C15.77688904 10.31656294 19.47186889 10.14892905 22.88671875 12.05078125 C25.04241292 13.82022513 26.7458328 15.4916656 28 18 C28.08426094 19.6674606 28.10725143 21.33825187 28.09765625 23.0078125 C28.09443359 23.99394531 28.09121094 24.98007812 28.08789062 25.99609375 C28.07951172 27.02863281 28.07113281 28.06117188 28.0625 29.125 C28.05798828 30.16527344 28.05347656 31.20554687 28.04882812 32.27734375 C28.03701952 34.85161962 28.02055075 37.42578146 28 40 C25.36 40 22.72 40 20 40 C19.97494385 39.42967041 19.9498877 38.85934082 19.92407227 38.27172852 C19.80843451 35.70173843 19.68556376 33.13214473 19.5625 30.5625 C19.52318359 29.66466797 19.48386719 28.76683594 19.44335938 27.84179688 C19.40146484 26.98779297 19.35957031 26.13378906 19.31640625 25.25390625 C19.27974854 24.46314697 19.24309082 23.6723877 19.20532227 22.85766602 C19.19436743 20.98598559 19.19436743 20.98598559 18 20 C15.03 20 12.06 20 9 20 C8.67 26.6 8.34 33.2 8 40 C5.36 40 2.72 40 0 40 C0 26.8 0 13.6 0 0 Z " fill="#FCFCFC" transform="translate(57,271)"/>
<path d="M0 0 C4.84063945 2.33067825 7.56352878 5.22076799 10 10 C10 12.31 10 14.62 10 17 C2.74 17 -4.52 17 -12 17 C-11.01 18.65 -10.02 20.3 -9 22 C-6.37126057 22.64187629 -6.37126057 22.64187629 -3.5 22.375 C-2.5409375 22.34148437 -1.581875 22.30796875 -0.59375 22.2734375 C2.11176124 22.08220426 2.11176124 22.08220426 5 21 C7 24 7 24 7 26.0625 C6 28 6 28 3.5625 29.25 C-1.68043573 30.35377594 -7.05146362 31.33124217 -12.09375 29.0546875 C-15.6758035 26.64135484 -18.42165527 24.08512753 -20 20 C-20.69608605 15.38842991 -20.52897423 11.37828668 -18.375 7.1875 C-13.31810831 0.40061905 -8.19934232 -1.30868982 0 0 Z " fill="#F2F3F5" transform="translate(281,282)"/>
<path d="M0 0 C3.18970398 1.73983854 5.44695493 3.44695493 8 6 C8.22705078 8.33837891 8.22705078 8.33837891 8.1953125 11.2265625 C8.18886719 12.2578125 8.18242187 13.2890625 8.17578125 14.3515625 C8.15902344 15.43179687 8.14226562 16.51203125 8.125 17.625 C8.11597656 18.71296875 8.10695313 19.8009375 8.09765625 20.921875 C8.07403409 23.61480152 8.04109556 26.30729255 8 29 C4.66666667 29 1.33333333 29 -2 29 C-2.66 29.33 -3.32 29.66 -4 30 C-11.08958838 30.5811138 -11.08958838 30.5811138 -14.9375 28.125 C-17.36754434 25.62131796 -17.91491449 24.63814131 -18.375 21.1875 C-17.87287557 16.91944236 -16.30889102 15.6320724 -13 13 C-10.04553821 12.00286914 -7.35327801 11.89186356 -4.25 11.9375 C-3.45078125 11.94652344 -2.6515625 11.95554687 -1.828125 11.96484375 C-1.22484375 11.97644531 -0.6215625 11.98804688 0 12 C-0.66 10.68 -1.32 9.36 -2 8 C-6.29 8 -10.58 8 -15 8 C-15.33 6.35 -15.66 4.7 -16 3 C-10.64285076 0.26443443 -6.032328 -1.02001182 0 0 Z " fill="#F6F7F8" transform="translate(393,282)"/>
<path d="M0 0 C3.18970398 1.73983854 5.44695493 3.44695493 8 6 C8.22705078 8.33837891 8.22705078 8.33837891 8.1953125 11.2265625 C8.18886719 12.2578125 8.18242187 13.2890625 8.17578125 14.3515625 C8.15902344 15.43179687 8.14226562 16.51203125 8.125 17.625 C8.11597656 18.71296875 8.10695312 19.8009375 8.09765625 20.921875 C8.07403409 23.61480152 8.04109556 26.30729255 8 29 C4.66666667 29 1.33333333 29 -2 29 C-2.66 29.33 -3.32 29.66 -4 30 C-11.08958838 30.5811138 -11.08958838 30.5811138 -14.9375 28.125 C-17.36754434 25.62131796 -17.91491449 24.63814131 -18.375 21.1875 C-17.87287557 16.91944236 -16.30889102 15.6320724 -13 13 C-10.04553821 12.00286914 -7.35327801 11.89186356 -4.25 11.9375 C-3.45078125 11.94652344 -2.6515625 11.95554687 -1.828125 11.96484375 C-1.22484375 11.97644531 -0.6215625 11.98804688 0 12 C-0.66 10.68 -1.32 9.36 -2 8 C-6.29 8 -10.58 8 -15 8 C-15.33 6.35 -15.66 4.7 -16 3 C-10.64285076 0.26443443 -6.032328 -1.02001182 0 0 Z " fill="#F6F7F8" transform="translate(134,282)"/>
<path d="M0 0 C1.64627294 0.71226503 3.25404005 1.51236885 4.8515625 2.328125 C4.1915625 4.308125 3.5315625 6.288125 2.8515625 8.328125 C1.830625 7.833125 1.830625 7.833125 0.7890625 7.328125 C-2.65683988 6.15505185 -5.53241172 6.18632007 -9.1484375 6.328125 C-9.1484375 7.318125 -9.1484375 8.308125 -9.1484375 9.328125 C-8.48457031 9.48667969 -7.82070313 9.64523437 -7.13671875 9.80859375 C-1.66767799 11.25369795 2.58940487 12.37864446 5.8515625 17.328125 C5.9765625 20.890625 5.9765625 20.890625 4.8515625 24.328125 C0.40255224 28.66305808 -2.68056836 29.60141751 -8.68359375 29.5625 C-12.53066433 29.19669297 -15.61830907 27.86854468 -19.1484375 26.328125 C-18.4884375 24.348125 -17.8284375 22.368125 -17.1484375 20.328125 C-16.1584375 20.658125 -15.1684375 20.988125 -14.1484375 21.328125 C-10.06248917 22.5146376 -6.38501356 22.47677679 -2.1484375 22.328125 C-2.1484375 21.008125 -2.1484375 19.688125 -2.1484375 18.328125 C-3.3240625 18.245625 -4.4996875 18.163125 -5.7109375 18.078125 C-10.32981792 17.51103826 -13.30306188 15.91786777 -17.1484375 13.328125 C-18.59274605 10.43950791 -18.52532256 8.53164799 -18.1484375 5.328125 C-13.03102306 -0.73197105 -7.68694579 -2.40391759 0 0 Z " fill="#F4F5F7" transform="translate(345.1484375,282.671875)"/>
<path d="M0 0 C2.64 0 5.28 0 8 0 C8 2.64 8 5.28 8 8 C10.31 8 12.62 8 15 8 C15 9.98 15 11.96 15 14 C12.69 14 10.38 14 8 14 C8.33 18.95 8.66 23.9 9 29 C11.31 29 13.62 29 16 29 C16 31.31 16 33.62 16 36 C12.79582279 37.6020886 9.47660568 37.49285215 6 37 C2.55687286 34.8755173 1.28382453 33.85147359 0 30 C-0.07029121 27.42734182 -0.09370832 24.88358569 -0.0625 22.3125 C-0.05798828 21.61060547 -0.05347656 20.90871094 -0.04882812 20.18554688 C-0.03706927 18.45699462 -0.01913454 16.72848635 0 15 C-1.98 15 -3.96 15 -6 15 C-6 12.69 -6 10.38 -6 8 C-4.02 8 -2.04 8 0 8 C0 5.36 0 2.72 0 0 Z " fill="#F5F5F7" transform="translate(357,275)"/>
<path d="M0 0 C2.64 0 5.28 0 8 0 C10.66557258 6.05022986 12.51030705 11.38914524 13 18 C13.66 18 14.32 18 15 18 C15.10957031 17.3709375 15.21914062 16.741875 15.33203125 16.09375 C16.38049266 10.43376318 17.82831017 5.3305114 20 0 C22.97 0 25.94 0 29 0 C27.52305697 4.2924352 26.04307115 8.58381502 24.5625 12.875 C24.14162109 14.09832031 23.72074219 15.32164062 23.28710938 16.58203125 C22.88427734 17.74863281 22.48144531 18.91523438 22.06640625 20.1171875 C21.69459229 21.19597168 21.32277832 22.27475586 20.93969727 23.38623047 C20 26 20 26 19 28 C15.7 28 12.4 28 9 28 C7.49223384 23.89864435 5.99512424 19.79347933 4.5 15.6875 C4.07074219 14.52025391 3.64148438 13.35300781 3.19921875 12.15039062 C2.79316406 11.03212891 2.38710937 9.91386719 1.96875 8.76171875 C1.59169922 7.73006592 1.21464844 6.69841309 0.82617188 5.63549805 C0 3 0 3 0 0 Z " fill="#F8F9FA" transform="translate(87,283)"/>
<path d="M0 0 C3.5625 1.5 3.5625 1.5 6 3 C5.34 4.98 4.68 6.96 4 9 C3.24074219 8.90460938 2.48148437 8.80921875 1.69921875 8.7109375 C0.20841797 8.54464844 0.20841797 8.54464844 -1.3125 8.375 C-2.29863281 8.25898438 -3.28476562 8.14296875 -4.30078125 8.0234375 C-7.22657416 7.74523005 -7.22657416 7.74523005 -10 10 C-10.47790518 12.36284864 -10.47790518 12.36284864 -10.375 15 C-10.38273437 15.886875 -10.39046875 16.77375 -10.3984375 17.6875 C-10.26695312 18.450625 -10.13546875 19.21375 -10 20 C-6.68735796 22.20842803 -6.16548604 22.19725756 -2.4375 21.6875 C-1.25994141 21.53861328 -1.25994141 21.53861328 -0.05859375 21.38671875 C2.05402631 21.08731629 2.05402631 21.08731629 4 20 C7 24.75 7 24.75 7 27 C1.6328226 29.74068633 -2.96280599 31.08731625 -9 30 C-13.72680631 28.15038014 -16.40597242 26.00242154 -19 21.625 C-20.47406419 16.28151731 -20.95664663 12.8069992 -18.3125 7.8125 C-12.83495966 1.15062661 -8.41470092 -0.84569859 0 0 Z " fill="#F5F6F7" transform="translate(424,282)"/>
<path d="M0 0 C4.93731454 1.46290801 4.93731454 1.46290801 6.375 4 C7.02588557 8.39347757 6.84938867 10.30998011 4.3125 14 C1.375 16 1.375 16 -2.25 16.0625 C-5.625 15 -5.625 15 -7.5625 13.3125 C-8.9863395 10.2135552 -9.17653827 8.37817188 -8.625 5 C-5.91953265 1.14675862 -4.77773264 0 0 0 Z " fill="#1D2F52" transform="translate(310.625,289)"/>
<path d="M0 0 C0.1875 2.375 0.1875 2.375 0 5 C-3.44107266 7.29404844 -4.96839809 7.26293056 -9 7 C-10 6 -10 6 -10.0625 3.4375 C-10.041875 2.633125 -10.02125 1.82875 -10 1 C-6.78548731 -0.60725635 -3.56387464 -0.05748185 0 0 Z " fill="#223356" transform="translate(393,299)"/>
<path d="M0 0 C0.1875 2.375 0.1875 2.375 0 5 C-3.44107266 7.29404844 -4.96839809 7.26293056 -9 7 C-10 6 -10 6 -10.0625 3.4375 C-10.041875 2.633125 -10.02125 1.82875 -10 1 C-6.78548731 -0.60725635 -3.56387464 -0.05748185 0 0 Z " fill="#223356" transform="translate(134,299)"/>
<path d="M0 0 C0.99 0.66 1.98 1.32 3 2 C3 2.99 3 3.98 3 5 C-0.96 5 -4.92 5 -9 5 C-8.67 3.68 -8.34 2.36 -8 1 C-5.22899606 -0.38550197 -3.0665294 -0.1877467 0 0 Z " fill="#203155" transform="translate(279,288)"/>
</svg>
