<?xml version="1.0" encoding="UTF-8"?>
<svg version="1.1" xmlns="http://www.w3.org/2000/svg" width="243" height="241">
<path d="M0 0 C80.19 0 160.38 0 243 0 C243 79.53 243 159.06 243 241 C162.81 241 82.62 241 0 241 C0 161.47 0 81.94 0 0 Z " fill="#17294D" transform="translate(0,0)"/>
<path d="M0 0 C18.406776 15.48849353 31.0871182 34.85104701 38.265625 57.79296875 C38.48863281 58.48261719 38.71164063 59.17226562 38.94140625 59.8828125 C47.09463652 88.32576085 41.25776443 119.96697003 27.49365234 145.62402344 C12.6519936 171.83740241 -11.25394433 189.71032342 -39.734375 198.79296875 C-41.58095703 199.41365234 -41.58095703 199.41365234 -43.46484375 200.046875 C-52.84641555 202.88811007 -62.15979474 203.17419281 -71.921875 203.23046875 C-73.79190186 203.2456958 -73.79190186 203.2456958 -75.69970703 203.26123047 C-84.37488274 203.18000437 -92.33093565 201.89805499 -100.734375 199.79296875 C-101.45520264 199.62531006 -102.17603027 199.45765137 -102.91870117 199.28491211 C-130.1346848 192.86086361 -154.0781335 173.76440457 -168.984375 150.41796875 C-175.22331961 139.73536768 -179.8200547 129.38100966 -183.109375 117.48046875 C-183.48570068 116.1203064 -183.48570068 116.1203064 -183.86962891 114.73266602 C-190.84552691 88.07112414 -186.0233117 60.07523198 -173.734375 35.79296875 C-173.404375 35.79296875 -173.074375 35.79296875 -172.734375 35.79296875 C-172.734375 69.12296875 -172.734375 102.45296875 -172.734375 136.79296875 C-154.91357845 134.56536918 -143.35817138 130.2821706 -131.9609375 116.67578125 C-128.18609649 111.4446564 -125.98011837 105.75859276 -123.8125 99.7109375 C-122.734375 96.79296875 -122.734375 96.79296875 -120.734375 92.79296875 C-120.734375 107.31296875 -120.734375 121.83296875 -120.734375 136.79296875 C-102.91357845 134.56536918 -91.35817138 130.2821706 -79.9609375 116.67578125 C-74.72764062 109.42354751 -71.24966874 100.59144853 -69.734375 91.79296875 C-67.9926625 95.070555 -66.74505582 98.43008515 -65.484375 101.91796875 C-59.60597492 117.15069244 -50.83905867 126.68365342 -35.9765625 133.41796875 C-24.01122856 138.49242363 -10.96665468 138.1866039 1.265625 133.79296875 C13.96395161 128.34334303 24.13607346 119.219119 29.703125 106.51171875 C35.4100291 92.11475614 35.9291536 79.27242376 30.046875 64.79296875 C23.4849566 50.50256867 13.71589222 42.99124957 -0.28125 36.63671875 C-11.84813459 32.65829985 -26.81983414 33.26834082 -37.86328125 38.234375 C-52.78465542 46.33454955 -62.35042149 57.78936867 -67.41796875 73.9765625 C-67.88411156 75.57430718 -68.31425538 77.18251022 -68.734375 78.79296875 C-69.064375 78.79296875 -69.394375 78.79296875 -69.734375 78.79296875 C-69.88132812 78.138125 -70.02828125 77.48328125 -70.1796875 76.80859375 C-73.6384719 62.73491927 -79.89105059 51.07620775 -92.171875 42.98046875 C-94.01098679 41.89211766 -95.86450979 40.82759157 -97.734375 39.79296875 C-98.46398437 39.38046875 -99.19359375 38.96796875 -99.9453125 38.54296875 C-106.94889091 35.00212614 -112.32450384 34.99437892 -120.734375 33.79296875 C-120.734375 48.64296875 -120.734375 63.49296875 -120.734375 78.79296875 C-122.734375 75.79296875 -122.734375 75.79296875 -123.484375 72.35546875 C-126.4335558 60.01428142 -133.654654 49.91360885 -144.171875 42.98046875 C-146.01033235 41.89101254 -147.8638793 40.82645127 -149.734375 39.79296875 C-150.47558594 39.38046875 -151.21679688 38.96796875 -151.98046875 38.54296875 C-158.25477361 35.41157256 -164.82545051 34.60452711 -171.734375 33.79296875 C-168.13628687 23.9721002 -160.80143259 16.29396848 -153.734375 8.79296875 C-153.14398438 8.12652344 -152.55359375 7.46007813 -151.9453125 6.7734375 C-138.86344346 -7.37457505 -119.88774342 -16.68824553 -101.734375 -22.20703125 C-100.67992188 -22.52800781 -99.62546875 -22.84898438 -98.5390625 -23.1796875 C-64.52392969 -31.66374035 -26.95035506 -21.91115561 0 0 Z " fill="#FDFDFD" transform="translate(193.734375,30.20703125)"/>
<path d="M0 0 C0.33 0 0.66 0 1 0 C1 33.33 1 66.66 1 101 C2.98 101 4.96 101 7 101 C7 101.33 7 101.66 7 102 C4.03 102 1.06 102 -2 102 C-14.49695107 73.00707353 -16.93376401 43.06964818 -6 13 C-4.2040637 8.56973753 -2.1582802 4.264643 0 0 Z " fill="#F4F5F6" transform="translate(20,66)"/>
</svg>
