<svg xmlns="http://www.w3.org/2000/svg" width="500" height="500"><path fill="#f2f2f2" d="M0 0h500v500H0z"/><path d="M0 0h500v500H0zm247.64 7.71-3.103 1.759-3.287 1.906-3.414 1.948a1633 1633 0 0 0-22.305 13.005c-5.63 3.332-11.3 6.593-16.969 9.86l-10.167 5.856Q180.196 46.77 172 51.5l-6.5 3.75-3.25 1.875L126.5 77.75l-3.25 1.875-6.504 3.752a25079 25079 0 0 0-22.621 13.06l-3.201 1.85a3089 3089 0 0 1-17.397 9.967l-3.776 2.149a3355 3355 0 0 1-7.15 4.056l-3.316 1.885-2.879 1.63L53 120l-2.686.913C46.616 122.505 44.6 123.889 42 127c-2.284 7.36-1.566 15.605-1.519 23.218q-.037 3.612-.087 7.225a1304 1304 0 0 0-.073 17.576q.012 7.146-.027 14.293l-.01 2.057-.02 4.138a5357 5357 0 0 0-.022 38.784c.026 11.814-.04 23.626-.15 35.44a3377 3377 0 0 0-.139 36.43c.01 6.814-.005 13.625-.087 20.437-.076 6.41-.063 12.815.01 19.224q.02 3.524-.05 7.046c-.667 11.728-.667 11.728 3.839 22.035 4.038 3.254 8.454 5.349 13.256 7.239 3.03 1.25 5.714 2.885 8.513 4.588q3 1.73 6.004 3.457l3.317 1.912L85 398a35713 35713 0 0 1 16.393 9.446c7.175 4.14 14.332 8.309 21.482 12.491A2685 2685 0 0 0 149 435a2966 2966 0 0 1 29.067 16.783c10.506 6.144 21.052 12.22 31.598 18.295q6.855 3.95 13.703 7.909 3.34 1.926 6.684 3.845c4.513 2.591 9.016 5.187 13.444 7.922l1.94 1.178a404 404 0 0 1 4.732 2.943c3.91 1.553 5.76 1.268 9.832.125 3.738-1.825 7.263-3.96 10.813-6.125q3.231-1.929 6.464-3.855l3.363-2.018c5.378-3.205 10.807-6.32 16.235-9.44l9.843-5.67q8.143-4.694 16.282-9.392l6.5-3.75 3.25-1.875 91.006-52.503 6.441-3.718c5.094-2.941 10.19-5.878 15.294-8.8q3.63-2.08 7.26-4.164 2.573-1.474 5.151-2.944l3.13-1.797 2.767-1.583c2.296-1.31 2.296-1.31 4.201-3.366.315-1.882.315-1.882.282-4.066l.037-2.593.009-2.867.033-3.032c.034-3.375.053-6.75.072-10.124q.031-3.617.065-7.233c.068-7.937.113-15.874.154-23.812l.022-4.088a16264 16264 0 0 0 .191-46.999l.007-2.22c.038-11.86.128-23.72.24-35.581q.168-18.265.192-36.532c.011-6.837.044-13.673.132-20.51.082-6.434.1-12.866.071-19.3q0-3.541.07-7.082c.759-11.332.759-11.332-2.828-21.664-3.46-3.14-7.395-4.66-11.749-6.297a191 191 0 0 1-6.043-3.535 3847 3847 0 0 0-6.144-3.528l-5.11-2.937-5.244-3.012c-5.49-3.155-10.975-6.322-16.459-9.488q-9.783-5.646-19.57-11.285a6559 6559 0 0 1-34.396-19.948c-10.56-6.166-21.155-12.272-31.752-18.376q-9.757-5.624-19.512-11.255a21982 21982 0 0 0-16.586-9.562l-3.396-1.957a6728 6728 0 0 0-6.625-3.81c-4.827-2.78-9.638-5.577-14.397-8.471l-2.373-1.434q-2.126-1.29-4.233-2.61c-6.07-3.68-9.43-3.569-15.52-.081"/><path fill="#010101" d="M262.188 78.438c1.922 1.277 3.776 2.619 5.624 4.002 4.283 3.053 8.935 5.52 13.5 8.123a2610 2610 0 0 1 6.247 3.664 2804 2804 0 0 0 19.316 11.21l3.27 1.886 6.573 3.786q8.143 4.693 16.282 9.391l6.5 3.75 13 7.5 3.255 1.878q3.224 1.86 6.447 3.723a2375 2375 0 0 0 15.237 8.743 3930 3930 0 0 1 7.202 4.106q2.54 1.444 5.086 2.878l3.109 1.777 2.736 1.552c2.488 1.633 4.406 3.419 6.428 5.593-9.063 5.3-9.063 5.3-13.599 7.936-5.287 3.072-10.567 6.154-15.813 9.296-2.35 1.405-4.707 2.798-7.065 4.19a657 657 0 0 0-5.054 3.041l-3.137 1.846-2.759 1.65c-3.126 1.265-4.405 1.115-7.573.041-2.542-1.252-2.542-1.252-5.262-2.852l-3.1-1.806-3.325-1.967q-1.743-1.02-3.487-2.037-3.621-2.115-7.238-4.237c-5.511-3.232-11.051-6.414-16.588-9.601l-6.445-3.719a41680 41680 0 0 0-23.578-13.595l-3.032-1.749-2.956-1.69a247 247 0 0 1-6.236-3.774L262.555 141l-2.868-1.812c-3.23-1.428-4.389-1.345-7.687-.188a98 98 0 0 0-5.77 3.105l-3.404 1.96-3.638 2.123-3.787 2.187A3380 3380 0 0 0 224 155l-3.24 1.886q-7.369 4.289-14.729 8.594a3197 3197 0 0 1-12.812 7.446l-3.437 1.987a1327 1327 0 0 1-6.744 3.858c-5.16 2.936-10.218 5.88-15.027 9.367-2.651 1.65-5.03 2.887-8.011 3.862-2.81-.81-2.81-.81-5.648-2.406l-3.163-1.74L148 186l-2.958-1.673a640 640 0 0 1-8.792-5.14l-6.266-3.683-3.064-1.8c-6.26-3.652-12.586-7.183-18.92-10.704 1.257-3.77 2.296-4.007 5.723-5.863l3.033-1.666 3.307-1.784q3.458-1.899 6.914-3.804l1.784-.98c5.782-3.184 11.485-6.497 17.177-9.84l5.972-3.5 3.02-1.77a3160 3160 0 0 1 15.945-9.23l9.843-5.672q8.142-4.693 16.282-9.391l19.746-11.39 3.362-1.944q3.298-1.898 6.61-3.772c5.014-2.848 9.887-5.75 14.61-9.062 13.014-8.939 13.014-8.939 20.86-4.894M253 11v61l-87.752 50.626-22.994 13.265-3.364 1.941q-3.292 1.897-6.588 3.79c-5.016 2.88-10.007 5.79-14.947 8.8l-2.629 1.583a309 309 0 0 0-4.767 2.935l-2.13 1.279-1.816 1.123c-3.88 1.268-7.156.063-10.732-1.626l-2.781-1.638-3.159-1.841L86 150.25l-3.447-2.02a2077 2077 0 0 1-8.816-5.201q-4.166-2.464-8.339-4.916A4422 4422 0 0 1 50 129c2.494-2.796 5.252-4.433 8.504-6.266l3.393-1.924 1.807-1.016c2.534-1.424 5.062-2.859 7.59-4.293l3.925-2.223a2371 2371 0 0 0 18.906-10.84l6.445-3.723 3.212-1.856Q111.89 92.177 120 87.5l6.5-3.75 16.25-9.375 6.496-3.748a25831 25831 0 0 1 16.324-9.412 6403 6403 0 0 0 34.376-19.937 4671 4671 0 0 1 25.78-14.92 1610 1610 0 0 0 21.465-12.566C251.894 11 251.894 11 253 11M102.734 342.117c3.938 1.065 7.087 2.875 10.516 5.008q2.278 1.377 4.559 2.75l2.51 1.52c4.962 2.972 9.98 5.846 14.993 8.73l3.331 1.92a6859 6859 0 0 0 26.26 15.031 2769 2769 0 0 1 27.02 15.635c8.708 5.092 17.462 10.1 26.233 15.082a281 281 0 0 1 6.631 3.9c3.348 1.948 6.788 3.375 10.379 4.821 6.693 2.921 13.033 5.83 17.834 11.486 3.556 9.212 2.389 19.576 1.648 29.239-.248 3.583-.356 7.171-.476 10.761A582 582 0 0 1 253 489c-8.88-4.679-17.669-9.455-26.312-14.562l-6.247-3.665-3.21-1.883a2844 2844 0 0 0-16.106-9.327l-3.27-1.886-6.573-3.786Q183.14 449.198 175 444.5l-6.5-3.75-16.25-9.375-6.504-3.752q-8.09-4.666-16.176-9.338a6617 6617 0 0 0-31.92-18.335 3618 3618 0 0 1-28.899-16.637l-2.938-1.709A521 521 0 0 1 50 372c3.305-2.757 6.59-5.029 10.36-7.102l3.108-1.721 3.282-1.802c7.755-4.298 15.49-8.617 23.125-13.125l2.085-1.229c8.443-5.004 8.443-5.004 10.774-4.904"/><path d="M463 133v234c-4.321-1.44-7.284-2.566-11.062-4.8l-2.922-1.718-3.016-1.795-2.828-1.666a192 192 0 0 1-6.06-3.73c-3.08-1.857-6.12-3.023-9.524-4.169-6.613-2.54-12.215-5.401-16.588-11.122-4.063-11.474-3.137-24.425-2.955-36.43.056-4.857.004-9.714-.03-14.571-.04-8.155.012-16.306.117-24.46.12-9.403.08-18.794-.04-28.195-.1-8.101-.114-16.199-.057-24.3.034-4.826.04-9.647-.033-14.472-.383-29.138-.383-29.138 5.175-36.427 5.143-4.48 10.78-7.057 17.2-9.215 3.69-1.308 6.793-3.163 10.135-5.192q3.085-1.717 6.176-3.425l6.324-3.512 2.702-1.495C461.502 133 461.502 133 463 133"/><path fill="#010101" d="M409.809 342.762c2.958 1.148 5.528 2.426 8.253 4.039l2.885 1.695 3.053 1.817 3.162 1.863c3.282 1.936 6.56 3.88 9.838 5.824q3.234 1.91 6.469 3.816A8541 8541 0 0 1 459 371c-1.446 4.338-4.718 5.294-8.562 7.313q-2.493 1.346-4.981 2.699l-2.693 1.462c-4.764 2.63-9.448 5.394-14.139 8.151A2457 2457 0 0 1 402 406a2531 2531 0 0 0-26 15c-9.228 5.404-18.5 10.727-27.791 16.02A2388 2388 0 0 0 324 451c-9.22 5.398-18.48 10.72-27.765 16.004-6.447 3.67-12.88 7.36-19.274 11.121l-3.363 1.977q-3.16 1.86-6.313 3.734l-2.824 1.664-2.475 1.469C260 488 260 488 258 488a830 830 0 0 1-.88-22.951 360 360 0 0 0-.402-10.66c-1.212-22.808-1.212-22.808 2.805-28.576 3.903-3.505 8.381-5.333 13.296-7.019 3.11-1.132 5.804-2.791 8.615-4.524q3-1.73 6.003-3.457l6.747-3.887 3.421-1.97q8.199-4.726 16.395-9.456l6.5-3.75 3.25-1.875 35.75-20.625 3.256-1.878q3.22-1.86 6.441-3.716a26612 26612 0 0 0 22.553-13.02l5.152-2.978 3.13-1.806 2.767-1.6c4.037-2.297 4.037-2.297 7.01-1.49M47 133c11.25 5.625 11.25 5.625 15.629 8.2l2.923 1.711 3.01 1.776 3.15 1.849q3.147 1.848 6.293 3.701 4.145 2.44 8.3 4.865l4.632 2.71 2.15 1.255c4.798 2.818 4.798 2.818 5.913 3.933.097 2.253.122 4.509.12 6.764l.003 2.168q.001 3.622-.01 7.246l.001 5.173q-.001 7.044-.013 14.088-.007 7.353-.008 14.706-.005 13.935-.021 27.869-.015 15.86-.022 31.719Q99.034 305.367 99 338l-2.17 1.211q-4.042 2.257-8.08 4.515l-5.174 2.889a666 666 0 0 0-23.513 13.76q-3.135 1.925-6.278 3.836l-2.66 1.634C49 367 49 367 47 367zM258 12c3.767 1.47 7.19 3.15 10.7 5.168l3.373 1.934 3.615 2.085 3.766 2.164q4.84 2.782 9.676 5.571l5.34 3.074a5416 5416 0 0 1 34.405 19.942 2782 2782 0 0 0 26 15 5707 5707 0 0 1 54.922 31.71 1761 1761 0 0 0 18.345 10.571 4119 4119 0 0 0 8.98 5.101c7.735 4.396 15.33 8.972 22.878 13.68-2.1 2.268-4.1 3.758-6.824 5.207l-2.334 1.258-2.53 1.347c-9.262 5.006-18.367 10.251-27.44 15.592l-2.935 1.725-2.597 1.533L413 156l-2.059 1.242c-2.498.976-3.452.717-5.941-.242a121 121 0 0 1-5.262-2.809l-3.113-1.747-3.312-1.881-3.428-1.934a1144 1144 0 0 1-20.3-11.74c-6.312-3.742-12.664-7.413-19.022-11.077l-3.356-1.933-6.812-3.923Q332.196 115.23 324 110.5l-6.5-3.75-13-7.5-3.256-1.878-6.44-3.716a9724 9724 0 0 0-15.32-8.828q-3.645-2.094-7.29-4.193-2.591-1.49-5.184-2.977l-3.139-1.806-2.783-1.6C259 73 259 73 258 72a108 108 0 0 1-.114-5.621v-3.64l.016-3.962.005-4.031q.006-5.315.024-10.628.014-5.42.02-10.839.016-10.64.049-21.279"/><path d="M406 166v168c-4.345-1.448-7.304-2.58-11.098-4.836l-2.9-1.71-3.065-1.829-6.414-3.785-3.274-1.934c-5.935-3.482-11.923-6.871-17.911-10.261l-2.49-1.415-2.188-1.237C355 306 355 306 354 305a63 63 0 0 1-.235-4.229l-.078-2.765-.07-3.058-.083-3.203c-.24-9.778-.384-19.556-.497-29.336a1178 1178 0 0 0-.374-19.712c-.18-6.35-.277-12.695-.315-19.047a292 292 0 0 0-.176-7.252c-.648-18.426-.648-18.426 3.465-23.363 4.003-3.296 8.406-5.332 13.223-7.168 3.296-1.335 6.204-3.14 9.242-4.984q3.26-1.88 6.523-3.758l3.348-1.93q3.145-1.812 6.294-3.62 2.502-1.44 4.99-2.908C403.792 166 403.792 166 406 166"/><path fill="#010101" d="M167.245 312.108 170 314a287 287 0 0 0 5.262 2.937 4234 4234 0 0 1 8.423 4.757c8.021 4.547 15.99 9.18 23.945 13.843a1729 1729 0 0 0 18.733 10.816q4.596 2.62 9.198 5.23l3.376 1.92 2.965 1.683L245 357l2.13.851c2.482 1.147 4.05 2.095 5.87 4.149 1.135 4.536.93 8.964.781 13.613a773 773 0 0 0-.034 4.014 626 626 0 0 1-.198 10.53c-.082 3.586-.118 7.172-.158 10.759A1785 1785 0 0 1 253 422c-3.53-1.384-6.804-2.91-10.113-4.766l-2.994-1.675-3.206-1.809-3.36-1.889c-9.466-5.34-18.86-10.802-28.237-16.299a3035 3035 0 0 0-18.965-11l-3.273-1.886-6.57-3.785a27079 27079 0 0 1-19.503-11.25 7717 7717 0 0 0-14.987-8.633C118.178 345.45 118.178 345.45 108 339c2.795-3.012 5.483-5.033 9.086-6.996l3.039-1.677 3.25-1.765c6.74-3.661 13.391-7.33 19.781-11.582l2.925-1.898a158 158 0 0 0 5.397-3.697c6.45-4.154 9.445-3.396 15.767.723m183.722-2.978c2.616 1.12 5.07 2.407 7.556 3.792l3.316 1.841 3.536 1.987 3.616 2.02c11.113 6.223 22.09 12.674 33.009 19.23-2.943 3.198-5.888 5.277-9.672 7.398l-3.414 1.93-1.808 1.01c-2.533 1.415-5.058 2.845-7.583 4.273q-1.942 1.1-3.887 2.196c-5.954 3.362-11.862 6.798-17.761 10.256-11.503 6.73-23.044 13.394-34.593 20.046q-9.749 5.618-19.492 11.244-7.56 4.363-15.126 8.716l-5.344 3.074a6948 6948 0 0 1-6.695 3.847c-4.467 2.572-8.901 5.16-13.242 7.94C260 422 260 422 258 422a1607 1607 0 0 1-.466-23.158c-.047-3.586-.11-7.17-.213-10.755a481 481 0 0 1-.175-10.387 248 248 0 0 0-.166-5.872c-.005-8.694-.005-8.694 2.89-11.898 2.312-1.57 4.589-2.777 7.13-3.93l2.936-1.744 2.568-1.412 2.954-1.636 3.104-1.708c8.472-4.701 16.894-9.471 25.25-14.375 10.294-6.04 20.642-11.979 31.013-17.884l3.405-1.94 3.013-1.714c2.774-1.552 2.774-1.552 5.368-3.356C349 309 349 309 350.967 309.13"/><path d="M105 167c4.321 1.44 7.284 2.566 11.063 4.8l2.921 1.718 3.016 1.794 2.828 1.667q3.053 1.8 6.06 3.673c3.083 1.845 6.231 3.31 9.521 4.75 14.63 6.822 14.63 6.822 17.897 13.114 2.091 7.15 1.83 14.504 1.686 21.886q.03 3.555.078 7.108a536 536 0 0 1-.092 14.844c-.114 6.317-.02 12.611.13 18.926.772 38.075.772 38.075-5.38 46.283-5.46 5.206-11.596 7.605-18.79 9.567-4.086 1.21-7.352 3.212-10.899 5.518l-6.414 3.727-3.379 1.977-3.207 1.859-2.806 1.634C107 333 107 333 105 333z"/><path fill="#010101" d="M205 225c4.045 1.24 7.532 2.715 11.168 4.871l2.93 1.727 3.09 1.84 3.198 1.875c5.1 2.992 10.173 6.02 15.204 9.128l2.587 1.571q2.395 1.455 4.757 2.962c4.185 2.558 4.185 2.558 8.96 2.674 4.476-2.375 8.836-4.895 13.168-7.523l8.89-5.313c4.908-2.918 9.847-5.78 14.798-8.625 1.348-.781 1.348-.781 2.723-1.58l2.511-1.439 2.21-1.273C303 225 303 225 305 225c6.575 12.023 7.614 27.864 4.078 41.086-1.15 3.146-2.464 5.982-4.078 8.914l-1.316 2.645c-7.53 13.963-19.537 21.34-34.024 26.558-4.73 1.03-9.209 1.088-14.035 1.047l-2.71.023c-14.892-.043-26.913-5.534-37.7-15.902-11.847-12.682-15.658-27.101-15.442-44.086.253-7.258 2.51-13.623 5.227-20.285"/><path fill="#020202" d="M162 200c4.171 1.343 7.747 2.843 11.52 5.082l3.1 1.826 3.192 1.905 6.27 3.707 3.022 1.787A468 468 0 0 0 201 221c-.668 3.58-1.655 6.582-3.062 9.938-2.097 6.12-2.317 11.868-2.313 18.312l-.004 2.832c.25 15.902 6.925 30.09 17.691 41.668 9.839 9.313 22.91 14.318 36.168 15.89C252 310 252 310 253 311a63 63 0 0 1 .114 4.244v2.73l-.016 2.967-.005 3.023c-.005 3.2-.018 6.399-.03 9.599q-.008 3.244-.014 6.49-.017 7.974-.049 15.947c-3.81-1.424-7.244-3.18-10.77-5.203l-3.404-1.95-3.638-2.097-3.787-2.174a3758 3758 0 0 1-26.424-15.335 2538 2538 0 0 0-15.97-9.272l-1.776-1.023q-4.251-2.446-8.505-4.886l-3.101-1.783-2.71-1.555L170 309c-.66-.3-1.322-.598-2.003-.906-5.552-2.797-5.552-2.797-6.724-6.21-.26-2.696-.263-5.29-.181-7.999l-.004-3.076c.006-3.35.068-6.697.13-10.047q.023-3.488.035-6.974c.03-6.115.11-12.228.198-18.342.082-6.24.118-12.48.158-18.721.086-12.243.223-24.484.391-36.725m97-56c2.326 1.145 2.326 1.145 4.754 2.598l2.795 1.654 3.014 1.81q3.25 1.926 6.503 3.848l3.438 2.036c5.213 3.073 10.474 6.06 15.733 9.051a3022 3022 0 0 1 28.888 16.628l2.887 1.684A1548 1548 0 0 1 345 194c-2.523 2.83-5.355 4.515-8.629 6.398l-3.389 1.954-1.767 1.008q-2.624 1.501-5.24 3.015C319.417 210.139 312.813 213.72 306 217l-2.238-2.598c-10.61-12.058-23.661-22.143-40.258-23.625-19.36-.829-33.91 2.559-49.129 15.02-3.628 3.366-6.546 7.156-9.375 11.203-4.987-.55-8.56-2.875-12.75-5.437l-4.516-2.715-2.345-1.418a514 514 0 0 0-7.248-4.246l-2.357-1.364q-2.254-1.302-4.513-2.595c-5.16-3.001-5.16-3.001-6.271-5.225l2.19-1.247c12.635-7.197 25.262-14.405 37.81-21.753 8.95-5.24 17.933-10.418 26.938-15.562l1.791-1.025q4.148-2.371 8.31-4.722a224 224 0 0 0 5.598-3.3l2.367-1.418 1.998-1.238c2.727-1.003 4.241-.585 6.998.265"/><path fill="#010101" d="M348 200c.209 13.456.368 26.912.466 40.369.047 6.249.111 12.497.213 18.745.098 6.03.152 12.059.175 18.09q.025 3.45.098 6.901c.065 3.224.074 6.443.07 9.667l.098 2.882c-.038 2.729-.17 4.784-1.12 7.346-2.71 2.62-5.654 4.305-9 6l-3.047 1.808-2.703 1.489-3.064 1.699L327 316.75c-7.85 4.36-15.664 8.76-23.385 13.344-7.687 4.558-15.436 9.008-23.181 13.466l-3.172 1.827-3.112 1.79c-4.306 2.492-8.59 5.018-12.873 7.549C259 356 259 356 258 356v-46l13-2c7.365-2.091 13.907-5.165 20.098-9.668C293 297 293 297 295.12 296.074c2.365-1.352 2.785-2.624 3.879-5.074l2.688-2.875c9.447-10.79 13.93-25.302 13.605-39.434-.762-9.603-3.142-18.632-6.293-27.691l1.905-1.066a6110 6110 0 0 0 8.783-4.934l3.178-1.788c6.723-3.8 13.327-7.718 19.806-11.919C345 200 345 200 348 200"/><path fill="#020202" d="m254.813 194.688 2.83-.05c14.688-.01 26.347 6.185 37.068 15.92 2.778 2.964 4.988 6.096 7.289 9.442l-7.56 4.43q-4.938 2.898-9.883 5.782c-5.734 3.348-11.46 6.697-17.092 10.214l-2.34 1.444q-2.07 1.282-4.111 2.612c-1.827 1.123-1.827 1.123-5.014 2.518-3.704-1.146-6.987-3.014-10.36-4.906l-3.109-1.742-3.281-1.852-3.357-1.887A1253 1253 0 0 1 209 221c3.608-10.025 12.195-16.437 21.395-21.254 8.266-3.816 15.357-5.09 24.417-5.059"/></svg>