<?xml version="1.0" encoding="UTF-8"?>
<svg version="1.1" xmlns="http://www.w3.org/2000/svg" width="630" height="632">
<path d="M0 0 C207.9 0 415.8 0 630 0 C630 208.56 630 417.12 630 632 C422.1 632 214.2 632 0 632 C0 423.44 0 214.88 0 0 Z " fill="#0D3C5A" transform="translate(0,0)"/>
<path d="M0 0 C0.68416992 0.04979004 1.36833984 0.09958008 2.07324219 0.15087891 C24.34956448 2.06662197 46.85710165 11.31370615 66.82080078 20.96044922 C68.91664713 21.9602379 71.02755582 22.91121491 73.15234375 23.84765625 C103.25272592 37.24991148 154.2846086 63.54796782 169.30859375 95.078125 C172.70534984 104.5199555 172.7160236 118.0217527 169.0625 127.3125 C163.73670623 138.06939985 156.7248424 147.85433838 149 157 C148.175 158.00933594 147.35 159.01867187 146.5 160.05859375 C134.78631671 174.2289779 121.74294069 187.9603735 107 199 C105.70642578 200.01900391 105.70642578 200.01900391 104.38671875 201.05859375 C89.31480169 212.59700783 73.13041265 218.84936046 54 217 C35.71602542 214.50786353 18.16740785 207.56028737 1.8894043 199.11279297 C0.64670776 198.4846167 0.64670776 198.4846167 -0.62109375 197.84375 C-1.3473999 197.46412109 -2.07370605 197.08449219 -2.82202148 196.69335938 C-5.62126773 195.80221944 -7.21615298 196.12237381 -10 197 C-11.7880067 198.04910516 -11.7880067 198.04910516 -13.34765625 199.44140625 C-13.94690918 199.93858154 -14.54616211 200.43575684 -15.16357422 200.94799805 C-15.79021973 201.48078369 -16.41686523 202.01356934 -17.0625 202.5625 C-21.69235269 206.3999116 -26.29526499 209.96620463 -31.375 213.1875 C-37.00353244 216.83660224 -41.49753521 221.04904751 -46 226 C-46.556875 226.61230469 -47.11375 227.22460938 -47.6875 227.85546875 C-49.48495976 229.8819318 -51.24395609 231.93750921 -53 234 C-53.89282159 235.04071438 -54.78608742 236.08104773 -55.6796875 237.12109375 C-57.72961794 239.50781786 -59.77596474 241.89755538 -61.8203125 244.2890625 C-63.88970698 246.7082138 -65.96777307 249.11938733 -68.0546875 251.5234375 C-73.59567775 257.92019992 -78.95159287 264.41288242 -84.13696289 271.1015625 C-86.65709323 274.33814228 -89.23816776 277.46310723 -92 280.5 C-95.74323269 284.62287089 -99.16967657 288.96588821 -102.58422852 293.35986328 C-106.13456188 297.92206891 -109.77080489 302.40602786 -113.4375 306.875 C-118.79549259 313.42725824 -123.91696818 320.12717082 -128.95703125 326.92578125 C-131.0473416 329.74078701 -133.17151708 332.52538799 -135.32421875 335.29296875 C-149.94693256 353.73560227 -149.94693256 353.73560227 -158.58276367 375.35375977 C-166.87099521 411.02562168 -190.09402554 442.90459405 -215 469 C-215.91845703 469.99773437 -215.91845703 469.99773437 -216.85546875 471.015625 C-229.24242886 484.10604211 -250.08246449 499.14772251 -268.48046875 500.1328125 C-283.63733437 500.08906974 -296.01657188 497.88613468 -307.1640625 486.859375 C-315.99074484 477.42284916 -316.73866046 469.71095467 -316.40234375 457.23046875 C-316.01270351 450.42693738 -314.17542504 445.01036162 -311 439 C-310.51732666 438.05930664 -310.51732666 438.05930664 -310.02490234 437.09960938 C-305.1887153 427.73924736 -299.634652 419.20485298 -293 411 C-291.83984375 409.53433594 -291.83984375 409.53433594 -290.65625 408.0390625 C-279.38652422 394.08850129 -266.37132782 380.75234716 -252 370 C-250.43958984 368.78957031 -250.43958984 368.78957031 -248.84765625 367.5546875 C-236.14456229 357.84584291 -222.42218017 349.41152087 -208.58203125 341.4296875 C-193.42375792 332.68753389 -181.01060369 321.14588112 -169.64453125 307.86328125 C-167.48622847 305.41788831 -165.17014872 303.15750999 -162.84301758 300.87426758 C-161.0650619 299.06616509 -159.40287882 297.20370549 -157.75 295.28125 C-153.50088094 290.39363897 -149.05856967 285.70100551 -144.60546875 281 C-140.84104417 277.00955407 -137.17258366 272.95504856 -133.57617188 268.8125 C-131.57898345 266.51585706 -129.54273519 264.25615529 -127.5 262 C-124.23295665 258.37976277 -121.00479224 254.73016435 -117.8046875 251.05078125 C-115.77041859 248.73911203 -113.6977769 246.4646857 -111.625 244.1875 C-107.67628555 239.81714316 -103.9537279 235.29696921 -100.25 230.71875 C-98.06498431 228.07852271 -95.80828609 225.5327028 -93.5 223 C-88.79573875 217.82286673 -84.37344963 212.4576549 -80 207 C-79.12950652 205.95653019 -78.25839604 204.91357484 -77.38671875 203.87109375 C-72.25390318 197.61837394 -68.72168415 191.91156604 -66.09765625 184.15234375 C-64.66697503 180.04359021 -62.77085184 176.22340262 -60.8203125 172.33984375 C-59.89062687 170.09004866 -59.89062687 170.09004866 -59.98046875 167.9453125 C-61.57265457 164.90734875 -64.31541837 163.61469775 -67.1875 161.9375 C-82.49745197 152.54073819 -106.3025666 137.25501668 -111.6328125 119.40234375 C-114.90537758 97.99141267 -106.0911843 79.8820377 -93.78491211 62.99707031 C-71.29067918 32.7754169 -41.23324099 -3.19764072 0 0 Z " fill="#ECEDEE" transform="translate(391,65)"/>
<path d="M0 0 C0.83402344 0.37511719 1.66804688 0.75023438 2.52734375 1.13671875 C3.70683594 1.63042969 4.88632812 2.12414062 6.1015625 2.6328125 C7.47633162 3.27210288 8.84722533 3.91977075 10.21484375 4.57421875 C10.9617749 4.92911377 11.70870605 5.28400879 12.47827148 5.6496582 C19.34042399 8.9592836 25.97545141 12.62738446 32.60546875 16.375 C38.14105403 19.49981749 43.74183909 22.50066404 49.33984375 25.51171875 C60.50824983 31.54230655 71.54825261 37.76895376 82.52734375 44.13671875 C83.6918108 44.80971522 84.85636599 45.48255919 86.02099609 46.15527344 C111.11376038 60.65928017 111.11376038 60.65928017 120.77734375 67.01171875 C121.37272949 67.3979541 121.96811523 67.78418945 122.58154297 68.18212891 C125.38389791 70.07537886 126.4251576 70.8301603 127.52734375 74.13671875 C126.078125 76.37890625 126.078125 76.37890625 123.83984375 79.01171875 C123.01097656 79.98882812 122.18210937 80.9659375 121.328125 81.97265625 C117.9576973 85.81669439 114.47600538 89.55701847 110.98071289 93.28735352 C107.76607009 96.7346518 104.72882986 100.27003865 101.77734375 103.94921875 C98.53837939 107.98330794 95.1280685 111.64614715 91.421875 115.25 C88.9302407 117.73135952 86.64806887 120.36297064 84.35546875 123.02734375 C82.38301678 125.30324987 80.3649901 127.53260082 78.33984375 129.76171875 C75.29209091 133.13326321 72.31331092 136.55092778 69.37768555 140.01953125 C62.53261616 148.10267128 55.40451936 155.90422418 48.05078125 163.52832031 C46.78727866 164.86228747 45.5858557 166.25473581 44.40234375 167.66015625 C42.52734375 169.13671875 42.52734375 169.13671875 40.30859375 169.1875 C36.27770593 167.66459435 32.71571571 165.53693861 29.02734375 163.32421875 C27.30895745 162.31188238 25.5901944 161.30018532 23.87109375 160.2890625 C22.98550781 159.76554199 22.09992188 159.24202148 21.1875 158.70263672 C-2.10667564 144.99037143 -25.78289956 131.91217544 -49.80322266 119.52001953 C-54.88854898 116.88480287 -59.9484168 114.20092899 -65.00756836 111.51586914 C-68.39438143 109.72543974 -71.78419284 107.96552575 -75.24609375 106.32421875 C-76.33148438 105.80859375 -77.416875 105.29296875 -78.53515625 104.76171875 C-79.45425781 104.34148437 -80.37335938 103.92125 -81.3203125 103.48828125 C-83.7515015 101.9616181 -84.47372924 100.78923679 -85.47265625 98.13671875 C-73.48623728 82.48417163 -61.33691169 67.00064227 -48.56298828 51.97900391 C-45.61285028 48.50430515 -42.71597396 44.9921408 -39.84765625 41.44921875 C-36.26804422 37.047952 -32.5251116 32.8358838 -28.69921875 28.6484375 C-26.48328927 26.14871354 -24.41614753 23.57163185 -22.34765625 20.94921875 C-18.35603911 16.04785142 -14.11672903 11.43031132 -9.72265625 6.88671875 C-8.76528564 5.8654187 -8.76528564 5.8654187 -7.78857422 4.82348633 C-3.20914975 0.17744114 -3.20914975 0.17744114 0 0 Z " fill="#0D3C5A" transform="translate(394.47265625,83.86328125)"/>
<path d="M0 0 C1.79089434 0.86463235 3.5607683 1.7739741 5.30859375 2.72265625 C6.29641846 3.25713379 7.28424316 3.79161133 8.30200195 4.34228516 C9.33671631 4.90995605 10.37143066 5.47762695 11.4375 6.0625 C12.50121826 6.64306152 13.56493652 7.22362305 14.66088867 7.82177734 C20.76230383 11.16999653 26.83202996 14.56470746 32.8125 18.125 C33.70763306 18.65492554 33.70763306 18.65492554 34.62084961 19.19555664 C40.67947729 22.86949124 40.67947729 22.86949124 42 25 C42.03445196 31.64922895 38.81306175 36.99924937 35.75 42.75 C35.21785889 43.75844971 34.68571777 44.76689941 34.13745117 45.8059082 C28.79851491 55.71461855 22.62737149 64.91683374 16 74 C15.55462891 74.61504395 15.10925781 75.23008789 14.65039062 75.86376953 C10.34091271 81.79514786 5.86295894 87.51358478 1 93 C0.34 92.67 -0.32 92.34 -1 92 C-0.42894531 91.29359375 0.14210938 90.5871875 0.73046875 89.859375 C13.16249264 74.12663888 27.72599088 55.2726468 34 36 C33.70480232 33.2663568 33.70480232 33.2663568 33 31 C31.08459775 31.16710025 31.08459775 31.16710025 29 32 C27.4155134 33.95261332 27.4155134 33.95261332 26.12890625 36.43359375 C25.61473145 37.34093262 25.10055664 38.24827148 24.57080078 39.18310547 C24.05243652 40.11268066 23.53407227 41.04225586 23 42 C15.51136638 54.65625748 7.62708843 66.73766626 -1.57324219 78.21923828 C-2.82434396 79.78076059 -4.05815704 81.35610229 -5.2890625 82.93359375 C-10.36187624 89.326859 -15.88805506 95.25930173 -21.50927734 101.16821289 C-25.79638972 105.67632801 -29.93772926 110.28823377 -34 115 C-34.68046387 114.62125732 -35.36092773 114.24251465 -36.06201172 113.85229492 C-41.7749168 110.68348046 -47.55063594 107.64522673 -53.375 104.6875 C-54.05240234 104.33816406 -54.72980469 103.98882813 -55.42773438 103.62890625 C-58.92838507 101.86643791 -62.10130212 100.51932462 -66 100 C-62.82630464 109.42491349 -52.63926499 113.53242512 -44.32177734 117.89160156 C-39.1048509 120.68544731 -39.1048509 120.68544731 -38 124 C-47.11446367 128.05087274 -58.16602963 128.63904167 -67.8828125 126.30859375 C-70.11297737 125.38000594 -71.99737657 124.34752094 -74 123 C-75.07314453 122.29423828 -75.07314453 122.29423828 -76.16796875 121.57421875 C-82.72145173 116.95455042 -87.13095868 111.90644819 -89 104 C-89.89251458 96.81687064 -89.34817756 89.05505529 -85 83 C-82.30723679 82.10692276 -80.33303403 81.96386895 -77.515625 82.26953125 C-73.73320287 81.86427174 -72.08052651 79.44373937 -69.75 76.6875 C-69.26966309 76.14206543 -68.78932617 75.59663086 -68.29443359 75.03466797 C-64.56160805 70.76275268 -61.00905187 66.34510763 -57.453125 61.92578125 C-53.48058369 57.18782991 -49.22560209 52.71864577 -44.99609375 48.2109375 C-42.21389751 45.24291898 -39.52787257 42.20505811 -36.875 39.12109375 C-34.80655426 36.78116451 -32.67947163 34.50304472 -30.54638672 32.22216797 C-22.3824152 23.77475128 -22.3824152 23.77475128 -16 14 C-30.29667458 16.97847387 -41.02140839 31.22558608 -49.71875 42.14453125 C-52.28062791 45.35126541 -54.90934336 48.49374799 -57.5625 51.625 C-58.02382324 52.16979004 -58.48514648 52.71458008 -58.96044922 53.27587891 C-62.90218127 57.91444538 -66.92335006 62.47947413 -71 67 C-71 63.56540999 -70.57483569 63.10769049 -68.47265625 60.55859375 C-67.93205566 59.89730469 -67.39145508 59.23601562 -66.83447266 58.5546875 C-66.24972168 57.85601562 -65.6649707 57.15734375 -65.0625 56.4375 C-64.47001465 55.71949219 -63.8775293 55.00148438 -63.26708984 54.26171875 C-59.28042564 49.45741575 -55.19572404 44.75487192 -50.97265625 40.15625 C-49.12586911 38.13758366 -47.34051319 36.07916159 -45.5625 34 C-42.04277461 29.94945756 -38.23372668 26.21879504 -34.41796875 22.44921875 C-32.29317858 20.29696764 -30.28462816 18.10371406 -28.3125 15.8125 C-27.20933557 14.54079656 -26.10520865 13.26992725 -25 12 C-24.484375 11.40445312 -23.96875 10.80890625 -23.4375 10.1953125 C-17.10829469 3.34881637 -9.34516431 -3.67773692 0 0 Z " fill="#0E3D5B" transform="translate(173,429)"/>
<path d="M0 0 C3.48493372 1.01753077 5.98186847 2.45353982 8.9921875 4.47265625 C9.95898438 5.11332031 10.92578125 5.75398438 11.921875 6.4140625 C13.00855469 7.15462891 13.00855469 7.15462891 14.1171875 7.91015625 C12.78746585 10.81136713 11.3077073 13.03759628 9.1796875 15.41015625 C8.55964844 16.10496094 7.93960938 16.79976563 7.30078125 17.515625 C5.26121307 19.75221766 3.20780327 21.97551454 1.15209961 24.19726562 C0.45419312 24.95233398 0.45419312 24.95233398 -0.2578125 25.72265625 C-0.7314624 26.23505859 -1.2051123 26.74746094 -1.69311523 27.27539062 C-4.71048863 30.56389033 -7.58249406 33.93234142 -10.3828125 37.41015625 C-14.4953403 42.51765045 -18.86562718 47.32689539 -23.3203125 52.1328125 C-25.98395387 55.01977746 -28.57429598 57.95938959 -31.1484375 60.92578125 C-35.43961202 65.83550345 -39.84083358 70.64890443 -44.2109375 75.48828125 C-45.34789062 76.74898437 -45.34789062 76.74898437 -46.5078125 78.03515625 C-47.18070312 78.78023438 -47.85359375 79.5253125 -48.546875 80.29296875 C-50.43569105 82.40920078 -52.30066363 84.54176979 -54.16015625 86.68359375 C-57.94905704 91.01971253 -61.86690563 95.22419603 -65.8203125 99.41015625 C-66.48482422 100.11785156 -67.14933594 100.82554687 -67.83398438 101.5546875 C-71.84108918 105.80664934 -75.91572998 109.97668681 -80.07446289 114.08056641 C-92.71208581 126.59363845 -92.71208581 126.59363845 -100.4375 142.109375 C-102.06645632 148.51459212 -104.71259487 152.85848525 -108.7421875 158.08203125 C-112.08647366 162.50039472 -114.96841235 167.2015785 -117.8828125 171.91015625 C-116.5628125 172.24015625 -115.2428125 172.57015625 -113.8828125 172.91015625 C-116.50386984 173.91556111 -117.62994604 174.00334708 -120.30541992 173.01733398 C-121.63343628 172.31265991 -121.63343628 172.31265991 -122.98828125 171.59375 C-123.97248047 171.07619141 -124.95667969 170.55863281 -125.97070312 170.02539062 C-126.99357422 169.47173828 -128.01644531 168.91808594 -129.0703125 168.34765625 C-130.07384766 167.82107422 -131.07738281 167.29449219 -132.11132812 166.75195312 C-138.28364237 163.47102877 -144.15429725 159.91552547 -149.8828125 155.91015625 C-148.8828125 152.91015625 -148.8828125 152.91015625 -146.9909668 151.90356445 C-145.7676062 151.40602661 -145.7676062 151.40602661 -144.51953125 150.8984375 C-137.67233863 147.63989983 -132.87006278 142.48085748 -127.6953125 137.09765625 C-126.74136299 136.12714456 -125.78628894 135.1577369 -124.83007812 134.18945312 C-120.88199236 130.17119662 -117.0031185 126.11046173 -113.33203125 121.8359375 C-108.31819648 116.00840518 -102.73828053 110.72300536 -97.265625 105.33203125 C-92.84697683 100.9536747 -88.57647653 96.53100153 -84.52734375 91.80859375 C-81.73882018 88.58953804 -78.80351593 85.50887735 -75.8828125 82.41015625 C-71.68204298 77.93179557 -67.51581163 73.44154496 -63.51171875 68.78515625 C-61.54616161 66.52264444 -59.52607941 64.31324942 -57.5078125 62.09765625 C-54.37858423 58.63485543 -51.37780901 55.10336622 -48.4453125 51.47265625 C-45.36944662 47.66928122 -42.19528084 44.00932973 -38.8828125 40.41015625 C-34.8294065 36.00075003 -31.00258758 31.46176737 -27.23828125 26.8046875 C-22.86973586 21.4363755 -18.37399482 16.17591465 -13.8828125 10.91015625 C-13.18542969 10.08644531 -12.48804688 9.26273437 -11.76953125 8.4140625 C-10.86654297 7.36025391 -10.86654297 7.36025391 -9.9453125 6.28515625 C-9.44128906 5.69476563 -8.93726563 5.104375 -8.41796875 4.49609375 C-3.94677463 -0.12300246 -3.94677463 -0.12300246 0 0 Z " fill="#0F3E5B" transform="translate(331.8828125,267.08984375)"/>
<path d="M0 0 C-1.38821638 3.11027494 -3.01260669 5.28295363 -5.37890625 7.72265625 C-6.38328735 8.76957642 -6.38328735 8.76957642 -7.40795898 9.83764648 C-8.11895752 10.57184814 -8.82995605 11.3060498 -9.5625 12.0625 C-14.9667904 17.71633916 -20.12885819 23.4040474 -24.99609375 29.52734375 C-27.0826765 32.10201604 -29.26654786 34.55201386 -31.5 37 C-35.72415948 41.64584838 -39.69892532 46.45689808 -43.64697266 51.33789062 C-45.18583116 53.22828195 -46.73834595 55.10692707 -48.29296875 56.984375 C-55.66500454 65.88779987 -62.90683505 74.87330757 -70 84 C-71.22901333 85.57694243 -72.45818942 87.15375803 -73.6875 88.73046875 C-76.13667914 91.87401888 -78.58543238 95.01789602 -81.03125 98.1640625 C-81.53205078 98.80811035 -82.03285156 99.4521582 -82.54882812 100.11572266 C-84.04974117 102.06458654 -85.52822419 104.02906694 -87 106 C-90.218562 105.36933583 -92.53926588 104.27979522 -95.25 102.4375 C-95.95640625 101.98246094 -96.6628125 101.52742188 -97.390625 101.05859375 C-99.4356481 98.4427511 -99.4398319 96.38379755 -99.27539062 93.12524414 C-98.83773508 89.74776942 -97.85779734 86.65373287 -96.625 83.5 C-96.23006348 82.47459106 -96.23006348 82.47459106 -95.82714844 81.4284668 C-90.51884113 68.34172384 -81.88677643 56.86491805 -73 46 C-72.55994629 45.45698242 -72.11989258 44.91396484 -71.66650391 44.35449219 C-24.98281997 -12.89435869 -24.98281997 -12.89435869 0 0 Z " fill="#0F3E5B" transform="translate(387,76)"/>
<path d="M0 0 C1.32 0 2.64 0 4 0 C3.52087964 5.98900449 2.26859591 10.44006624 -0.5 15.75 C-0.85602295 16.44391846 -1.2120459 17.13783691 -1.57885742 17.8527832 C-5.05835124 24.43644954 -9.26950574 30.25252652 -14 36 C-14.83273437 37.02351563 -15.66546875 38.04703125 -16.5234375 39.1015625 C-27.08399944 51.91501817 -38.39506719 64.17301833 -51 75 C-51.62696777 75.53931152 -52.25393555 76.07862305 -52.89990234 76.63427734 C-73.26090426 94 -73.26090426 94 -81 94 C-75.96942924 82.86635101 -65.11886652 73.68847497 -56.81738281 64.92626953 C-49.08690434 56.73262698 -41.56578075 48.3572991 -34.2578125 39.78515625 C-33.23455265 38.58578591 -32.21110963 37.38657183 -31.1875 36.1875 C-30.41164551 35.27834839 -30.41164551 35.27834839 -29.62011719 34.35083008 C-26.4151062 30.60948459 -23.14798497 26.9389307 -19.8125 23.3125 C-14.34676149 17.35545915 -9.22139262 11.12539145 -4.24609375 4.75390625 C-2.6875 2.8125 -2.6875 2.8125 0 0 Z " fill="#12405D" transform="translate(549,177)"/>
<path d="M0 0 C5.38801077 0.57880684 9.62216749 2.42272411 14.4375 4.75 C15.26024414 5.14340576 16.08298828 5.53681152 16.93066406 5.94213867 C24.52026306 9.63976293 31.83840318 13.7757484 39.15454102 17.98266602 C45.97601155 21.89533926 52.88109762 25.59311234 59.875 29.1875 C67.34241536 33.03366687 74.65935175 37.0351971 81.86303711 41.35449219 C86.82860243 44.33013863 91.86121615 47.15553226 96.9375 49.9375 C103.39464976 53.50180129 109.7926807 57.15546241 116.125 60.9375 C116.91382568 61.39825928 117.70265137 61.85901855 118.51538086 62.33374023 C119.2347583 62.76887939 119.95413574 63.20401855 120.6953125 63.65234375 C121.33484863 64.03382568 121.97438477 64.41530762 122.63330078 64.80834961 C123.08431152 65.20159424 123.53532227 65.59483887 124 66 C124 66.99 124 67.98 124 69 C118.16111537 70.35033637 114.56821764 69.47231923 109.375 66.8125 C108.2753894 66.2721814 108.2753894 66.2721814 107.15356445 65.72094727 C100.47623108 62.37773151 94.01382368 58.6596031 87.55834961 54.91064453 C80.26433901 50.68281866 72.87599773 46.65504186 65.4375 42.6875 C64.8505838 42.37443909 64.2636676 42.06137817 63.65896606 41.73883057 C60.65335301 40.13619953 57.64660098 38.53572157 54.63916016 36.93652344 C45.18866205 31.9099932 35.75558301 26.85068386 26.32568359 21.78564453 C24.1132209 20.59771676 21.90000704 19.41118691 19.68603516 18.22607422 C16.60023033 16.5728145 13.51834199 14.91248532 10.4375 13.25 C9.5211377 12.76055908 8.60477539 12.27111816 7.66064453 11.7668457 C6.82259277 11.31269287 5.98454102 10.85854004 5.12109375 10.390625 C4.3933374 9.99907227 3.66558105 9.60751953 2.91577148 9.20410156 C0.98204739 7.98871641 -0.45818036 6.67603582 -2 5 C-1.34 3.35 -0.68 1.7 0 0 Z " fill="#13415E" transform="translate(304,192)"/>
<path d="M0 0 C-1.36266644 4.03805866 -3.1409151 6.54368118 -6.0625 9.625 C-9.30203185 13.11770101 -12.39445482 16.65871664 -15.375 20.375 C-19.53562075 25.51758543 -23.94356304 30.37451737 -28.4375 35.22265625 C-31.09866345 38.10693553 -33.68699008 41.04337133 -36.2578125 44.0078125 C-39.07584424 47.23022547 -41.95551613 50.39694979 -44.82421875 53.57421875 C-46.67443563 55.63702788 -48.49944809 57.7171237 -50.3125 59.8125 C-58.39538787 69.05271045 -66.8208304 77.94453735 -75.4375 86.6875 C-76.59149292 87.87351807 -76.59149292 87.87351807 -77.76879883 89.08349609 C-78.87130981 90.19265381 -78.87130981 90.19265381 -79.99609375 91.32421875 C-80.97340454 92.3155481 -80.97340454 92.3155481 -81.97045898 93.3269043 C-84.20360691 95.16784773 -86.2751585 96.06707814 -89 97 C-88.55093268 92.20994862 -86.27647965 89.46954449 -83.1875 86 C-82.69540039 85.43385986 -82.20330078 84.86771973 -81.69628906 84.28442383 C-76.26072632 78.07100146 -70.648989 72.01895215 -65 66 C-64.101604 65.0419043 -64.101604 65.0419043 -63.18505859 64.06445312 C-60.62539259 61.33502347 -58.06531894 58.60597936 -55.50366211 55.87841797 C-50.85986382 50.93003992 -46.25953813 45.9446948 -41.68359375 40.93359375 C-39.27190152 38.29723151 -36.85005569 35.67084493 -34.42333984 33.04833984 C-27.65333661 25.73178321 -20.89678176 18.40652045 -14.4375 10.8125 C-4.99032587 0 -4.99032587 0 0 0 Z " fill="#174360" transform="translate(546,169)"/>
<path d="M0 0 C-5.21412719 11.50794739 -16.51784629 20.96202288 -25.10644531 29.99755859 C-28.56969459 33.6599581 -31.96168413 37.38615686 -35.359375 41.109375 C-38.22840365 44.25002767 -41.11254303 47.37630494 -44 50.5 C-48.79315806 55.68834275 -53.57742182 60.88464618 -58.34375 66.09765625 C-60.08952763 68.00517504 -61.83941366 69.9089434 -63.59375 71.80859375 C-67.76417178 76.34585818 -71.78417388 80.92923707 -75.625 85.75 C-79.31079158 90.31304926 -83.1753877 94.6100446 -88 98 C-88.66 98 -89.32 98 -90 98 C-89.12420171 93.52074476 -86.58359301 90.83499153 -83.625 87.5 C-83.08770264 86.88415039 -82.55040527 86.26830078 -81.99682617 85.63378906 C-77.60600414 80.62416955 -73.11879155 75.70443345 -68.59765625 70.8125 C-63.54849068 65.34573427 -58.57500525 59.81373082 -53.6953125 54.1953125 C-50.09949356 50.08031114 -46.38018038 46.09428941 -42.625 42.125 C-37.76885904 36.96939801 -32.9611466 31.78158778 -28.24609375 26.49609375 C-24.97496141 22.86087016 -21.6443297 19.28134943 -18.31762695 15.69702148 C-14.95660746 12.06590554 -11.67952754 8.3781865 -8.5 4.5859375 C-5.7621345 1.69121513 -4.07829205 0 0 0 Z " fill="#1B4763" transform="translate(536,163)"/>
<path d="M0 0 C3.48803042 1.04689833 6.41580464 2.63074216 9.59765625 4.3984375 C10.49387695 4.8924707 10.49387695 4.8924707 11.40820312 5.39648438 C12.87049623 6.20367017 14.32829615 7.01898667 15.78515625 7.8359375 C14.24989188 12.566694 11.65404895 15.93147503 8.53515625 19.7109375 C8.06980469 20.31679688 7.60445313 20.92265625 7.125 21.546875 C5.70703125 23.265625 5.70703125 23.265625 2.78515625 25.8359375 C-1.92758096 25.98321054 -5.09453524 23.99481352 -8.96484375 21.4609375 C-9.9084375 20.85507812 -10.85203125 20.24921875 -11.82421875 19.625 C-14.21484375 17.8359375 -14.21484375 17.8359375 -16.21484375 14.8359375 C-13.99695833 12.3474604 -11.77163038 9.8667126 -9.53125 7.3984375 C-8.22833833 5.9571052 -6.93543085 4.50604543 -5.6796875 3.0234375 C-2.82361696 -0.20915681 -2.82361696 -0.20915681 0 0 Z " fill="#113F5D" transform="translate(351.21484375,242.1640625)"/>
<path d="M0 0 C13.16718109 2.86653942 25.3465226 10.86986921 36.97363281 17.32958984 C43.18804081 20.75964628 49.4489893 24.10502327 55.70458984 27.45922852 C61.90976062 30.8059273 67.98729761 34.31865333 74 38 C73.01 38.495 73.01 38.495 72 39 C69.45996094 37.92700195 69.45996094 37.92700195 66.234375 36.23828125 C65.65330994 35.9365097 65.07224487 35.63473816 64.47357178 35.32382202 C62.56150221 34.3278878 60.6558121 33.3203495 58.75 32.3125 C57.42540655 31.61966998 56.10053443 30.92737249 54.77539062 30.2355957 C46.07939182 25.68311315 37.4661295 20.98825476 28.87744141 16.23657227 C19.45505652 11.06954346 9.75652754 6.49651285 0 2 C0 1.34 0 0.68 0 0 Z " fill="#2E5670" transform="translate(406,80)"/>
<path d="M0 0 C0.99 0 1.98 0 3 0 C2.44328003 3.70566728 1.50940699 6.15266277 -0.625 9.22265625 C-1.1624585 10.00286133 -1.69991699 10.78306641 -2.25366211 11.58691406 C-2.82995361 12.40385742 -3.40624512 13.22080078 -4 14.0625 C-4.58724854 14.90651367 -5.17449707 15.75052734 -5.77954102 16.62011719 C-12.14252023 25.72076843 -18.62738199 34.68217456 -26 43 C-26.66 42.67 -27.32 42.34 -28 42 C-27.42894531 41.29359375 -26.85789063 40.5871875 -26.26953125 39.859375 C-20.88180771 33.04120658 -15.92320609 26.03778957 -11.1875 18.75 C-10.64907471 17.92338867 -10.11064941 17.09677734 -9.5559082 16.24511719 C-6.14562606 10.94551865 -2.98949808 5.54752221 0 0 Z " fill="#27516B" transform="translate(200,479)"/>
<path d="M0 0 C0.66 0 1.32 0 2 0 C0.40436192 4.04164614 -2.48376372 6.62762545 -5.5625 9.5625 C-10.2949021 14.18321883 -14.59307677 18.96501758 -18.71875 24.14453125 C-21.28062791 27.35126541 -23.90934336 30.49374799 -26.5625 33.625 C-27.02382324 34.16979004 -27.48514648 34.71458008 -27.96044922 35.27587891 C-31.90218127 39.91444538 -35.92335006 44.47947413 -40 49 C-40 45.56540999 -39.57483569 45.10769049 -37.47265625 42.55859375 C-36.93205566 41.89730469 -36.39145508 41.23601562 -35.83447266 40.5546875 C-35.24972168 39.85601562 -34.6649707 39.15734375 -34.0625 38.4375 C-33.47001465 37.71949219 -32.8775293 37.00148438 -32.26708984 36.26171875 C-28.28042564 31.45741575 -24.19572404 26.75487192 -19.97265625 22.15625 C-18.12586911 20.13758366 -16.34051319 18.07916159 -14.5625 16 C-10.93498151 11.81768457 -6.99967496 7.96645019 -3.0390625 4.1015625 C-0.95873909 2.16903954 -0.95873909 2.16903954 0 0 Z " fill="#2B546E" transform="translate(142,447)"/>
<path d="M0 0 C10.89855107 2.29162688 21.3745174 8.59565927 31 14 C30.34 14.66 29.68 15.32 29 16 C19.43 11.38 9.86 6.76 0 2 C0 1.34 0 0.68 0 0 Z " fill="#234E69" transform="translate(406,80)"/>
<path d="M0 0 C0.99 0 1.98 0 3 0 C2.50372318 4.79132712 0.19771508 8.02090287 -2.5625 11.8125 C-2.98724609 12.40998047 -3.41199219 13.00746094 -3.84960938 13.62304688 C-4.89223259 15.08740533 -5.94510452 16.54445735 -7 18 C-7.66 17.67 -8.32 17.34 -9 17 C-7.51401073 13.01518299 -5.66163296 9.38468256 -3.5625 5.6875 C-2.66724609 4.08455078 -2.66724609 4.08455078 -1.75390625 2.44921875 C-1.17511719 1.64097656 -0.59632813 0.83273437 0 0 Z " fill="#1C4864" transform="translate(200,479)"/>
<path d="M0 0 C20.13218391 9.26436782 20.13218391 9.26436782 23 15 C18.43218669 13.37745627 14.48940202 11.01524967 10.375 8.5 C9.70726562 8.09652344 9.03953125 7.69304687 8.3515625 7.27734375 C5.53059697 5.56783864 2.74484753 3.82989835 0 2 C0 1.34 0 0.68 0 0 Z " fill="#365D75" transform="translate(500,130)"/>
<path d="M0 0 C0.66 0 1.32 0 2 0 C0.48446596 3.47775179 -1.5773456 5.9557984 -4.125 8.75 C-5.21167969 9.94882812 -5.21167969 9.94882812 -6.3203125 11.171875 C-6.87460938 11.77515625 -7.42890625 12.3784375 -8 13 C-8 9.03990775 -6.59219817 7.85479241 -4.125 4.8125 C-3.40570313 3.91144531 -2.68640625 3.01039063 -1.9453125 2.08203125 C-1.30335937 1.39496094 -0.66140625 0.70789063 0 0 Z " fill="#26506B" transform="translate(110,483)"/>
<path d="M0 0 C0.66 0 1.32 0 2 0 C1.41463247 3.66060821 -0.083239 5.54535164 -2.5625 8.25 C-3.20316406 8.95640625 -3.84382812 9.6628125 -4.50390625 10.390625 C-4.99761719 10.92171875 -5.49132812 11.4528125 -6 12 C-6.66 11.67 -7.32 11.34 -8 11 C-6.71632558 9.16106176 -5.42283239 7.32897375 -4.125 5.5 C-3.04605469 3.96859375 -3.04605469 3.96859375 -1.9453125 2.40625 C-1.30335938 1.6121875 -0.66140625 0.818125 0 0 Z " fill="#345B74" transform="translate(180,510)"/>
<path d="M0 0 C0.99 0 1.98 0 3 0 C2.67 1.65 2.34 3.3 2 5 C0.68 5.33 -0.64 5.66 -2 6 C-1.34 4.02 -0.68 2.04 0 0 Z " fill="#26506B" transform="translate(200,479)"/>
</svg>
